<svg version="1.1" id="Слой_1" xmlns="http://www.w3.org/2000/svg" x="0" y="0" viewBox="0 0 800 450" xml:space="preserve"><style>.st0{fill:#a8a7a7}</style><path class="st0" d="M202.4 308c15.3 0 30.7-.1 46 .1 4 .1 5.3-.9 5.3-5.1.1-16.7.3-16.7-16.3-16.7-19.6 0-39.1.1-58.7 0-16.7-.1-28.2-11.9-28.1-28.7 0-5.3-.2-10.7.1-16 1-14.9 12.7-25.9 27.6-26 24.9-.1 49.8-.1 74.7 0 11.8 0 21.9 7.6 25.9 18.5 1.7 4.9 1.4 6.8-4.7 6.7-29.6-.3-59.1 0-88.7-.2-5.1 0-6.8 1-6.6 6.5.4 13.8.1 13.8 13.8 13.8h58c20.8 0 32.1 11.3 32.2 32.1 0 5.3-.1 10.6-.9 15.9-2 13.7-12.8 23.9-26.6 24-25.6.2-51.1.2-76.7 0-13.2-.1-24.1-8.8-27.1-20.6-.9-3.6-.2-4.6 3.6-4.5 15.7.3 31.5.2 47.2.2zm326.2-44.7h83.9c2.8 0 3.9.9 3.9 3.8-.1 13.6.4 27.2-.3 40.7-.7 13.9-12.1 23.9-26.3 23.9h-79.4c-15.4 0-26.7-10.4-27.1-26-.5-21.8-.5-43.6 0-65.4.3-15 12.2-26.1 27.4-26.2 26-.2 52-.2 78.1 0 11.7.1 20.2 5.8 25.3 16.4 2.1 4.5 2 6.5-4.1 6.5-31.8-.3-63.6-.1-95.4-.3-4.7 0-6.5.7-6.4 6 .4 20.2.3 40.5 0 60.7-.1 4.5 1.4 5.5 5.6 5.4 23.8-.2 47.6-.2 71.4 0 4.9 0 6.2-1.5 5.7-6.1-.7-6.3 2.8-14.9-1.4-18.5-3.6-3.1-11.9-.9-18.1-1-5.8-.1-11.6 0-17.3-.1-13.7 0-20.8-5.4-25.5-19.8zm-448.3 43c14.5 0 28.9.2 43.3-.1 4.6-.1 5.3 1.5 4.3 5.4-2.9 11.9-14.2 21.3-26.6 21.4-24.2.2-48.5.3-72.7 0C11.8 332.9.1 320.7 0 303.8c0-19.8 0-39.6.1-59.4.1-17.2 11.7-28.9 28.8-28.9h71.4c13 0 22.9 7.4 27.1 19.5 1.8 5 .7 6.7-4.7 6.6-27.8-.2-55.6.1-83.4-.2-6.3-.1-7.6 1.8-7.5 7.7.4 17.3.3 34.7.1 52 0 4 .8 5.3 5.1 5.2 14.4-.2 28.8 0 43.3 0zm695.5-87.6c2.4-1.1 4.4-1.2 6.7-.3-3 2.9-.7 7.1-2.5 10.8-3.6-3.1.4-8.1-4.2-10.5zm18.3 7.4c.1-3.3 1.1-8.6 3.8-7.6 3.7 1.4 1.2 6.7 1.3 10.9-2.3-2.3-1-4.7-1.8-6.8-2.3-.3-1 3.6-3.3 3.5zm-5.3-3.7c-.2 2.3.6 4.8-1.6 8-1.4-4.8-2.2-8.5.2-12.3 1 1.2 2.4 2.4 1.4 4.3z"/><path class="st0" d="M788.8 222.4c-.3-1.5-2-2.5-1.4-4.3 5.2.2 2.5 7 6.7 8.1l-.1-.1c.4 1.1.3 2.2-.6 2.8-.7.4-1.5-.1-1.9-1.1-.8-1.9-.9-4.1-2.7-5.4zM551 108.8c-6.2 0-12.3.7-18.5.7-9.7.1-13.4-3.5-13.9-13.2-.1-1.3.9-3.3-1.8-3.3-1.4 3.9.7 8.3-2.3 14.4 0-6.5-3.3-5.3-5.9-5.3-19.3 0-38.7-.1-58 0-6 .1-10.1-2-12.4-8.1.3 8.2-6 8-10.9 9.2-2.2.5-5.7 2.9-6.4-1.5-.5-3.1-2.4-7.2 3.4-8.2 2.9-.5 3.9-3 4.5-5.9 1.3-6.5-1.5-12.3-3-18.2-.9-3.7-5.6-3.9-8.5-5.7-15-9.3-31.7-2.8-37 14.1-1.8 5.7-1.8 11.3.1 17 .8 2.3 1.3 4.7-2.7 3.5-10.5-3.1-18.8.2-25.2 10.2-6.9 10.7-9.2 22.7-7.4 35.1.9 6.5-.8 8.5-6.9 8.2-4.7-.3-6.5 1.9-6.5 6.7 0 5.7-.8 11.5-1.7 17.2-1.6 9.9-1.5 10.3 9.5 13.1-6.3 2.7-7.8 6.8-7.1 12 .7 5.5 1.7 11 2.2 16.5.3 3.6 2.1 7.7-3.2 10.1-1.8.8-2.2 3.9-1.7 6.1 2.5 12.5 2.6 25-.4 37.4-1.9 8 2.3 17-4.1 24.2-10 11.1-10.9 26.2-17.6 38.8-1.4 2.7-2.6 6.3-1.4 9 2.8 6.6 0 12.5-1.4 18.6-1.2 5.4-3.1 10.7-4.1 16.1-2 10.2.3 12.7 10.6 12.9 2.2 0 4.4-.1 6.7-.2 8.5-.4 8.8-1 6.6-9.6-3-12-2.2-23.2 7.9-32.1 1.1-1 2-2.5 2.4-3.9 1.9-6.9 5.3-13.1 8.1-19.6 1.2-2.9 2.5-5.8 1.9-9-1-5.6 1.7-9.5 4.9-13.8 5-6.7 12.2-12.3 12.1-22 0-1.2.9-2.5 1.2-3.8 2-9.3 8.5-16.3 12.7-24.6 2.9 1.7 2.6 7.1 6.3 7.2 6.1.3 7.9 4.9 10.6 8.8 3.3 4.7 6.5 9.5 9.6 14.4 1.8 2.8 4.4 4.9 7.6 4.6 7.1-.7 7.2 3.3 7.1 8.6-.2 6.6-4.4 12.2-3.3 19.3 1.6 9.8 3.2 19.5 5.9 29 3 10.6-.5 21-3.2 31.3-1.4 5.4.9 7.4 6.1 7.2 3.8-.1 7.7-1.1 11.3.3 9.1 3.5 18.4 2.2 27.7 2.2 2.1 0 4.8.5 5.1-2.8.2-2.5.1-5-2.7-6.2-2.2-1-4.5-1.9-6.7-3-8.7-4.4-15.1-10.7-15.9-21-.9-12.1 2.2-24 2.7-36 .7-17.2 3.3-33.3-5.7-49.8-7.5-13.7-12.4-28.9-23.4-40.6-2.9-3.1-2.9-6.9-3.5-10.6-.4-2.2 1.1-4.6 4.1-3.4 5.1 2 6.5-1.5 8.3-5 3.2-6.3 1.6-13.1 2.5-19.7 1-7 3.3-14.7-5.3-19.5-2.3-1.3-.7-4.3 0-6.1 1.1-2.8 3-.5 4.3.2 4.6 2.2 9 4.9 13.6 7 9.2 4.2 17.8 5.1 25.6-3.5 3-3.4 4.6-6.8 5.4-11 .4-2.4.6-6.3 1.9-6.8 7.9-2.8 3.6-8.1 2.9-12.4-1.2-7 6.2-17 13.2-18 9.6-1.4 19.4 3 29.1-3 3-1.8 9.7-1.7 14.8-1.2 6.3.7 12.7.8 19.1.8 1.8 0 5 1.5 5.1-2.2.1-4.1-3.3-2.2-5-2.2zm-90.9 17.8c-2.6 4.3-4.5 9.2-9.6 12.3-1.1-2.1-2.1-3.8-3-5.6-.7-1.5-2.5-3.9-.1-4.4 5.2-1 4.4-9.3 10.5-8.2 3.3.6 3.4 3.9 2.2 5.9zm307.2 113.7c-.2-13.9-12.2-26-26.1-26.2-25.1-.3-50.3-.3-75.4 0-14.3.2-26.1 11.5-26.4 25.7-.4 22.5-.4 44.9 0 67.4.3 13.5 12.4 24.3 25.9 24.4h38c12.5 0 24.9.1 37.4 0 14.7-.1 26.4-11.3 26.5-25.9.3-21.8.4-43.6.1-65.4zm-25.3 65c0 4.2-1.2 5.2-5.2 5.2-22.2-.2-44.4-.2-66.6 0-4 0-5.7-.7-5.7-5.4.3-21.1.2-42.2 0-63.2 0-4.4 1.2-5.6 5.5-5.5 11.3.3 22.6.1 34 .1 10.9 0 21.8.1 32.6-.1 3.8-.1 5.4.6 5.4 5-.2 21.2-.2 42.6 0 63.9z"/></svg>