<svg version="1.1" id="Слой_1" xmlns="http://www.w3.org/2000/svg" x="0" y="0" viewBox="0 0 800 450" xml:space="preserve"><style>.st1{fill:#48473d}</style><path d="M570.6 231c-2.1-1.6-3.5-3.8-3.4-6.5.1-5.8-.3-10.7-7.8-11.7-2.7-.3-4-3.1-3.5-6 .9-4.9 4.4-6.6 8.9-6.9 1.9 5-1.6 7.5-7.4 11.2 20.5-1.2 12 11.8 13.2 19.9zM499 214.1c-5.4 0-9.7-2.3-13.1-6.4 7.2-3.6 11.1-.6 13.1 6.4z" fill="#b5b5b5"/><path class="st1" d="M411 390.9c-12.5.9-25.1.4-37.7.1-7.4-.2-7.4-.6-8.3 7.1 14-7.2 21.4-4.2 22.3 9.2-1.2 13.3 1 26.8-1.7 40.3 4.3.9 8.3.9 12.5-.1-2.7-7.6-.7-15.3-1.8-22.8.1-8.1.2-16.1.4-24.2.1-2.5-.6-5.7 3.5-5.4 5.8.5 12.3-1.5 17 4.1 1.9-6 1.5-8.8-6.2-8.3zm171 47.5c-8.8 5.8-17.9 3.7-29 3.3 8.8-7.4 16.3-13 21.8-20.7 6.6-7.1 8.6-15.4 3.6-23.6-5.5-9-15.2-8.1-24.2-7.2-6.7.7-10.6 3.8-7.3 12.8 2.8-9.5 9.4-11.5 16.8-8.8 6.7 2.4 7.4 9 7 15.4-.1 2.5-.9 5-1.3 7.5-5.9 12.6-17 20.7-28.2 31.1 12.5 0 23.1-.2 33.6.1 7.4 0 8.3-3.8 7.2-9.9z"/><path d="M571 362.8v-10.1c0-34.2.1-68.3-.2-102.5 0-6.4 2.3-12.8-.2-19.2-1.8-2.9-1.7-6.1-1.6-9.3.1-5 .6-9.8-7.1-9.3-4.4.3-4.3-3.1-2.7-6 1.4-2.4 3.8-4.3 5.7-6.5 0-1.3 0-2.6.1-3.8 3.2-15.3 3.6-30-7-43.1-3-3.8-2.6-6.8.1-11.1 4-6.3 4.1-15 11.8-19.3 1-.6.9-3.6.9-5.5 0-21.3.3-42.6-.3-63.8-.2-9.6-2.9-18.9-.3-28.7 1.1-3.9-.6-8-5.4-11.8-11.5-9-25.5-1.6-36.9-7.8-6.4 10-11.9.7-18.1-.6-17.4-3.8-35.3-1-52.9-3.8-7.2-1.1-13.7.3-14.8 9.5-.2 1.8-1.1 3.4-3.5 4-3.7.9-29.8-5.4-31.9-8.1-.2-.2-.4-.6-.3-.8 2.2-6.3-2.8-4.8-5.7-4.9-10.9-.2-21.9 0-32.8-.3-9-.3-17.5-.3-25.5 5.5-6.7 4.9-14.6 7.1-23.5 6.9-11.2-.2-22.1-4.2-32.8-4.1-24.4.1-48.8-4-73.3-.5-12.3 1.8-16 4.7-13.1 17 4.4 19 2.5 37.9-1.2 56.5-2.7 14-2 27.3 1.7 40.9 2.9 10.7 6.4 21.5 3 33.1-1.7 5.9 0 11.8 3.8 17.3 5.4 7.9 3.4 16.4-4.8 21-2.5 1.4-3.3 2.5-3 5 .8 6.4-.5 12.9 1.6 19.1.1 6.6-2.5 14.7 2.9 19.3 6.9 5.9 6.8 12.3 5.9 19.9-1.2 10.5-1.2 21.2-8.6 29.9-2.2 2.5-1.3 6.2-1.3 9.4-.3 15.2 2.5 30.2 1.4 45.4-1.1 14.2.6 16.1 15.1 17 5.4.3 11 .3 16.4-.5 10.9-1.6 22.2-1.7 32.7-.6 24.2 2.5 48.5-1.2 72.7 2.4 7.1 1.1 10.7 2.6 14.3 7.7 2.2 3 5 8.8 9.2 3.6 5.2-6.5 10.7-4.2 17.1-4 7.7.2 14.2 8.2 22.2 3.3 7.7-4.8 16.2-5.9 25-5.7 32.1.5 64.2-3.5 96.4 0 3.2.3 6.4.6 9.3-1.6.9-.7 3.3-.8 2.4-2-6-8.1 2.9-5.1 4.5-5.3 11.1-1.5 21.3 2.8 32.6 6.9zM473.2 64.9c6.7-1.7 11.5 3.3 16.5 6.3 12.3 7.4 14.5 12.2 10.9 25.7-2.6 9.6-5.4 19.1-5.4 29.2 0 6.3-4.1 8.2-9 4.6-22.3-16.1-45-31.8-67.2-51.1 19.2-5.3 36.6-10.2 54.2-14.7zM338.9 296.3c-17.5 5.9-34.4 13.8-57.3 15-8 2.6-13.9-6.7-21.9-12.5-21.3-15.6-19-12.4-9.7-36.3 4.5-11.3 9.6-22.4 14.2-33.7 1.9-4.7 3.3-6.3 7.7-2 21.8 21.4 43.5 43 66.4 63.3 1.9 1.5 5.9 4.5.6 6.2zM523 246.5c-3.3 12.5-5.6 25.2-10.7 37.1-8.4 19.7-8.6 19.6-29.5 18.6-2.6-.1-5.1-.5-7.7-.6-12-.5-19.3-7.6-27.3-15.9-16.5-17.1-30.6-36.6-48.8-52.1-5.4-4.6-10.3-9.7-14.6-15.4-6.4-8.6-14.9-15.2-22.6-22.5-1.8-1.7-4-2.9-6.5-2 .9-3.4-1.4-6.4-4.2-9.2-10.2-10.3-19.1-21.8-29.5-31.9-23.9-23-45.3-48.5-69.4-71.3-1.2-1.1-2.3-2.3-3.3-3.5-1.8-2.3-1-3.8 1.2-5.6 8.7-6.7 17.4-6.6 26.6-.5 12 8 22.5 18.6 34.4 25.7 41.8 24.8 81 53.6 121.8 79.9 14.1 9.1 27.3 19.4 42 27.5 2.9 1.6 5.9 3.5 8.6 2.3 0 1 .8 1.7 1.7 2.3 5.1 0 10.2.1 10.8 7 5 8 14 11.2 20.8 17 4.3 3.5 7.8 7.1 6.2 13.1z" fill="#ab7676"/><path class="st1" d="M496.2 432.4c-9.6 2.5-12-3.1-14.5-9.6-4.3-11.1-9.4-21.9-15.1-34.9-9.2 21.5-17.5 40.6-25.7 59.8 4.7 1.1 8.7 1.7 8.8-5.4.1-4 2.5-6.9 7.6-6.4 4.8.4 9.7.1 14.5.1 3 0 5.9.2 6.5 4.1 1.5 9.2 7.7 9.6 15.4 7.7-2.1-5.8-11.9-11.7 2.5-15.4zm-23.1-1.2c-3.9 2.5-10.5 1.1-15.9 1-3.7-.1-2.7-3-2-4.9 2.7-7 5.6-13.9 8.7-21.6 4 4.5 4.8 9.2 6.3 13.6 1.4 4 6.2 9.7 2.9 11.9zM342.2 415c-1.7-14.5-10.5-23.1-25.4-25.1-18.5-2.4-32 5.2-38 21.2-1.8 4.2-2.9 8.4-1.9 13 4.2 18 18.9 28 37.3 25.5 19-2.6 29.1-15.2 28-34.6zm-11.3 11.8c.2 8.7-3.5 15.2-11.4 18.1-8.4 3.1-16.4 1-23-5.3-5.8-5.7-8.2-12.8-8.6-20.7.1-1 .3-1.9.3-2.9.5-13.9 5.9-21.4 16.2-22.5 13.4-1.4 22.9 5.3 26.4 18.4.5 1.8 1.1 3.6 1.6 5.4-.5 3.2-1.5 6.4-1.5 9.5zm-94.6-32.9c-9.8-4-20.3-2.1-30.5-2.9-8.3-.6-13 .5-10.5 10.5 1 4.3.4 9 .5 13.5-1.2 10.7.9 21.6-1.5 32.7 5.8.5 11.5 1.1 17.2 1.5 27.7 2.1 39.6-8.6 40.2-36.2-.7-9.9-6.9-15.6-15.4-19.1zm5.9 34.7c-4.8 14-15.4 20.1-29.9 17.3-4.8-.9-7.2-3.5-7.2-8.6.1-7.4-.2-14.8-.4-22.2.1-3.5.3-7.1.3-10.6.1-10.9 1.4-12 12.4-10.4 18.2 2.6 25.9 13.4 24.8 34.5z"/></svg>