<?xml version="1.0" encoding="utf-8"?>
<!-- Generator: Adobe Illustrator 22.1.0, SVG Export Plug-In . SVG Version: 6.00 Build 0)  -->
<svg version="1.1" id="Слой_1" xmlns="http://www.w3.org/2000/svg" xmlns:xlink="http://www.w3.org/1999/xlink" x="0px" y="0px"
	 viewBox="0 0 128 128" style="enable-background:new 0 0 128 128;" xml:space="preserve">
<style type="text/css">
	.st0{fill:#BFBFBF;}
</style>
<g>
	<path class="st0" d="M114.7,11.2c-0.1,0-0.1,0-0.1,0c0,0,0,0-0.1,0c-33.7,0-67.3-0.1-101,0C6,11.3,2.1,14.5,0,22.1
		c0,28.7,0,57.3,0,86c2.1,7.6,6,10.9,13.5,10.9c33.7,0.1,67.3,0.1,101,0c7.5,0,11.4-3.3,13.5-10.9c0-28.5,0-56.9,0-85.4
		C126.3,14.9,122.3,11.5,114.7,11.2z M114.7,109.5c-33.8,0-67.7,0-101.5,0c-4.3,0-5.6-1.4-5.6-6.1c0-25.6,0-51.1,0-76.7
		c0-4.6,1.3-6.1,5.6-6.1c17,0,33.9,0,50.9,0c16.9,0,33.7,0,50.6,0c4.5,0,5.8,1.4,5.8,6.2c0,25.5,0,50.9,0,76.4
		C120.4,108.1,119.1,109.5,114.7,109.5z"/>
	<path class="st0" d="M112.4,27.3c-0.5,0.3-0.9,0.6-1.4,0.9C96.5,38.5,81.9,48.7,67.5,59c-2.5,1.8-4.3,2.1-7,0.1
		C51.9,52.7,43,46.6,34.2,40.4c-6.2-4.4-12.4-8.8-19-13.4c0,13,0,25.6,0,38.1c0,12,0,23.9,0,35.9c0,0.9-0.5,2.4,0.4,2.5
		c2.1,0.3,4.4,0.6,6.5,0c1.3-0.4,0.5-2.6,0.5-3.9c0.1-18.9,0-37.9,0-57.4c1,0.7,1.5,1.1,2.1,1.4C35.8,51.3,46.8,59,57.6,66.8
		c4.3,3.1,8.3,3.2,12.6,0.1c5.4-4,10.9-7.7,16.4-11.6c6.1-4.3,12.1-8.5,18.6-13.1c0,1.5,0,2.5,0,3.5c0,17.5,0,35,0,52.6
		c0,5.5,0,5.4,4.9,5.5c2.2,0.1,2.6-0.6,2.6-2.9c-0.1-23.7,0-47.4-0.1-71.1C112.7,29,112.9,28.2,112.4,27.3z"/>
</g>
</svg>
