<svg version="1.1" id="Слой_1" xmlns="http://www.w3.org/2000/svg" x="0" y="0" viewBox="0 0 800 450" xml:space="preserve"><style>.st0{fill:#454a4b}</style><path class="st0" d="M417.9 89.7c4.2 9.5 8.5 18.9 12.7 28.4 4.3 9.7 8.6 19.3 12.8 29 1.5 3.5 3.5 6.4 6.3 9 18 17.2 35.9 34.5 53.9 51.7 3.5 3.4 3.5 3.4 5.8-1.1 21.9-42.3 14.3-92.6-19.2-126.8-2.4-2.4-2.7-3.8-.5-6.5 7.7-9.2 15.3-18.5 22.8-28 2-2.5 3-2.8 5.5-.5 22.9 22.2 38.4 48.6 44.5 80 10.4 53.9-3.7 101-42.1 140.1-26.1 26.6-58.4 41.1-95.6 44.6-76.1 7.2-147.1-42.1-164.9-115.9-13.8-57.2 1.3-107.1 43-148.8 2.3-2.3 3.4-2.2 5.4.4 7.6 9.7 15.4 19.2 23.3 28.6 1.7 2.1 1.9 3.2-.2 5.2-17.9 17.9-28.6 39.6-31.5 64.6-2.7 22.9 1.7 44.7 12.7 65 1.1 2.1 1.9 1.8 3.4.4 19.2-18.6 38.5-37.2 57.8-55.7 1.4-1.3 2.1-3 2.9-4.7 8.3-18.7 16.6-37.3 24.9-56 .4-.9.8-1.7 1.4-2.8 1.3 1 .8 2.2.8 3.2 0 29.8 0 59.5.1 89.3 0 2.5-.9 4.2-2.7 5.9-18.5 17.7-37 35.5-55.4 53.2-.7.7-1.4 1.5-2.3 2.4 11.9 9 24.9 15.3 39.2 18.8 32.1 7.7 62.1 2.7 89.9-15.3 5.2-3.3 5.1-3.4.8-7.5-17.9-17.2-35.7-34.3-53.5-51.5-1.4-1.3-2.9-2.5-2.9-4.9.1-31.2.1-62.4.1-93.6.3-.1.6-.1.8-.2z"/><path class="st0" d="M409.8 46.5c-23.6.2-45.4 7.1-64.9 21.2-2.1 1.5-3.1 1.4-4.7-.7-7.8-9.9-15.7-19.7-23.8-29.3-2-2.4-1.2-3.3.8-4.9C339.8 16.2 365 6.1 392.9 3.1c40.5-4.3 77.4 5.6 110.5 29.6 2.8 2 2.9 3.2.7 5.8-7.8 9.3-15.5 18.8-23 28.3-1.8 2.3-3 2.4-5.4.7-19.6-14-41.4-21-65.9-21zm.2 343.7c-4.7 10.5-9.1 20.1-13.3 29.8-1.2 2.8-2.8 3.4-5.7 3.8-8.2 1.2-12.2-1.9-15.3-9.7-7.2-18.2-15.5-35.9-23.4-53.8-.4-.9-.7-1.8-1.3-3.3 7.5 0 14.5.1 21.6 0 2.2 0 2.5 1.6 3.1 2.9 3.6 8.4 7 16.9 10.6 25.3.6 1.4.8 3 2.5 4.4 4.1-9.2 8.3-18.3 12-27.5 1.6-3.9 3.7-4.9 7.8-5.3 7.7-.8 11.8 1.7 14.3 9.2 2.7 8.2 6.8 15.9 10.6 24.6 4.5-10.5 8.7-20.1 12.6-29.9 1.1-2.8 2.5-4 5.6-3.8 4.4.3 8.9.2 13.3 0 3.5-.2 4.6.5 2.9 4.1-8.2 18.4-16.5 36.8-24.1 55.4-2.3 5.6-5.1 7.4-11.2 7.5-6.4.1-9.3-2-11.4-7.7-3-8.5-7.1-16.7-11.2-26zM17.2 423.6c6.1-6.1 11.4-11.6 16.8-17 1-1.1 2.4-.7 3.7-.7 8.2 0 16.3-.2 24.5.1 3.1.1 3.8-.9 3.8-3.9-.2-7.9-.3-15.7 0-23.6.1-3.4-1.1-4-4.1-3.9-11.4.2-22.9.2-34.3 0-2.9 0-3.9.6-3.9 3.7.2 8.6 0 17.2.1 25.8 0 2.3-.5 4-2.3 5.7-3.3 3.1-6.6 6.3-9.7 9.8-1.8 2-3.2 1.7-5.1.3-3.8-2.9-5.8-6.6-5.8-11.4 0-12.2-.1-24.3 0-36.5.1-6.8 3.4-11.2 9.9-13.6 2.9-1 5.8-1.4 8.9-1.4 16.6 0 33.2.1 49.8 0 5.4 0 9 1.6 12.4 6.4 5.1 7.1 7.6 14.3 6.8 23-.6 7 0 14-.1 21-.1 8.5-5.1 14.2-13.5 15.6-2.7.4-5.4.6-8.1.7-14.9.1-29.8 0-44.6 0-1.6-.1-2.9-.1-5.2-.1zm313.1-24.9c9.7 8.5 18.6 16.3 28.5 24.9-5.5 0-9.9-.5-14.1.1-12.3 1.8-22.1-2-30.1-11.6-2.7-3.3-6.1-6.1-9.6-8.6-4.3-3.2-6.1-6.9-5.6-12.3.5-6.1.1-6.2 6.2-6.2 5.1 0 10.3-.1 15.4.1 2.9.1 4-.6 4-3.8-.1-7.3.1-7.3-7.3-7.3-7.9 0-15.7.2-23.6-.1-3.7-.1-5.1.7-5 4.8.3 13.4-.1 26.9.2 40.3.1 4-1.2 4.8-4.8 4.6-4.7-.3-9.4-.2-14.2 0-2.6.1-3.7-.4-3.7-3.4.1-20 .1-40.1 0-60.1 0-2.4.6-3.2 3.1-3.2 20.3.1 40.6-.1 60.9.1 11 .1 16 5.5 16 16.6v9.4c0 8.9-3.4 13-12.1 14.9-.8.3-1.9.4-4.2.8zm383.4-8.4c0-9.9.1-19.8 0-29.6 0-2.6.4-3.9 3.5-3.8 5.4.2 10.9.2 16.3 0 2.7-.1 3.4 1 3.3 3.5-.2 5.6.1 11.2-.1 16.7-.1 2.7.8 3.4 3.4 3.3 11.3-.1 22.6-.1 33.9 0 2.8 0 3.4-.9 3.3-3.5-.2-5.6 0-11.2-.1-16.7 0-2.3.4-3.4 3-3.3 5.6.2 11.2.1 16.7 0 2.2 0 3 .6 3 2.9-.1 20.3-.1 40.6 0 61 0 2.3-.9 2.9-3.1 2.8-5.4-.1-10.9-.2-16.3 0-2.6.1-3.5-.7-3.4-3.4.2-6.4 0-12.9.1-19.3.1-2.4-.6-3.2-3.1-3.2-11.4.1-22.9.2-34.3 0-2.9 0-3.2 1.1-3.2 3.5.1 6.3-.1 12.6.1 18.9.1 2.5-.5 3.6-3.3 3.5-5.4-.2-10.9-.2-16.3 0-3 .1-3.5-1.1-3.5-3.7.2-9.8.1-19.7.1-29.6zM663.8 357h22.3c4.5 0 8.8 1 12.6 3.6 5.2 3.6 5.9 9 5.7 14.9-.2 6.9-.1 6.9-7.1 6.9-3.9 0-7.7-.2-11.6.1-3.2.2-4.6-.8-4-4 .5-2.9-.5-3.9-3.6-3.9-10 .2-20 .2-30.1 0-3.1-.1-3.8 1-3.8 3.9.2 7.9.2 15.7 0 23.6-.1 2.9.7 4 3.8 3.9 10-.2 20-.2 30.1 0 3.2.1 4.1-1.1 3.6-3.9-.7-4.1.7-5.5 5-5.1 4.8.4 9.7.2 14.6 0 2.5-.1 3.3.8 3.1 3.2-.2 2.1 0 4.3 0 6.4 0 9.2-4.9 14.9-14.1 16.4-7.3 1.2-14.6.6-21.8.5-10.7-.1-21.5.9-32.2-.5-9.8-1.3-14.5-7-14.5-16.8 0-7.7.1-15.5 0-23.2 0-2.5.5-4.7 1.9-6.8 3.5-5.2 7.1-10.4 10.3-15.8 1.6-2.7 3.6-3.6 6.7-3.5 7.6.2 15.3.1 23.1.1zm-442.3 66.6c-10.4 0-20.9-.1-31.3.1-2.9 0-4-.6-3.9-3.7.2-14.5.2-28.9 0-43.4 0-2.9 1.8-4.7 2.8-7 4.9-10.8 12.9-14 24.6-12.9 12.9 1.2 26 .4 39 .2 3 0 4.5.5 4.2 3.9-.3 3.4-.3 6.9 0 10.3.2 3-1 3.6-3.7 3.5-13.3-.1-26.6 0-39.9-.1-3.1 0-4.1.6-4.1 4 0 3.3 1.1 4 4.2 4 8.3-.2 16.6 0 24.9-.1 2.4 0 3.3.6 3.1 3.1-.2 3-.2 6 0 9 .2 2.8-.9 3.3-3.5 3.3-8.4-.1-16.9.1-25.3-.1-3.7-.1-3.3 1.9-3.3 4.3-.1 2.6 0 4.2 3.5 4.1 13.4-.2 26.9 0 40.4-.2 3.1 0 4 .9 3.8 3.9-.2 3.4-.3 6.9 0 10.3.3 3.2-1.1 3.7-3.9 3.7-10.7-.3-21.1-.2-31.6-.2zm230.4 0c3.6-5.4 6.7-10.1 9.9-14.8 10.8-16.1 21.7-32.2 32.4-48.4 1.6-2.4 3.3-3.1 6.2-3.5 10.1-1.7 15.9 2.6 21 11.3 10.6 17.8 22.4 34.8 33.7 52.2.6.9 1.7 1.6 1.3 3.3h-23c-2.1 0-2.6-1.6-3.4-2.8-7.7-11.9-15.3-23.8-22.9-35.7-.8-1.3-1.7-2.6-2.8-4.3-5.6 8.6-11 17-16.5 25.4-3.2 4.9-6.4 9.8-9.5 14.8-1.2 1.9-2.5 2.7-4.8 2.7-6.8-.3-13.7-.2-21.6-.2zm-314.6-26.2c8-12.7 15.6-24.8 23-36.9 1.6-2.6 3.4-3.6 6.5-3.5 6.6.3 13.1.1 19.6.1 1 1.5-.3 2.3-.8 3.1-13 20-26.2 39.9-39.2 59.9-1.8 2.7-3.7 3.4-6.9 3.8-8.1 1.1-12.7-2-16.8-9.1-10.7-18.4-22.5-36.1-33.9-54.1-.6-.9-1.8-1.9-1.3-3 .5-1.3 2-.6 3.1-.6 6.1-.1 12.3.1 18.4-.1 2.5-.1 3.8.8 5.1 2.9 7.6 12.3 15.2 24.5 23.2 37.5zM625.5 357c-3.9 5.9-7.4 10.9-10.6 16.1-1 1.5-2.2 1.5-3.7 1.5-5.1 0-10.3.3-15.4-.1-4.2-.3-4.9 1.3-4.8 5 .2 13.3 0 26.6.2 39.9.1 3.4-1 4.4-4.3 4.2-4.7-.3-9.4-.3-14.1 0-3.3.2-4.4-.6-4.3-4.2.2-13.7 0-27.5.2-41.2 0-3-.8-3.9-3.8-3.8-7.3.2-14.6 0-21.9.1-2.7.1-3.5-.8-3.4-3.4.2-3.4.3-6.9 0-10.3-.3-3.3 1-4.1 4.1-4 22 .1 44 .1 66.1.1 4.8.1 9.8.1 15.7.1zm-103.2 66.8c-6.1 8.7-11.8 16.8-17.8 25.2-6-8.5-11.7-16.6-17.7-25.2h35.5zM156.1 356h-35.5c6-8.6 11.7-16.7 17.7-25.2 5.9 8.4 11.6 16.4 17.8 25.2z"/></svg>