<svg width="212" height="202" fill="none" xmlns="http://www.w3.org/2000/svg"><path d="M183.783 141.633l22.117 8.338-66.776 50.985L1 72.736l87.567 33.007" stroke="#05B8B1" stroke-opacity=".2" stroke-width="2" stroke-miterlimit="10" stroke-linejoin="round"/><path d="M109.085 118.647l-15.73-45.122 54.254-2.076-38.524 47.198z" stroke="#05B8B1" stroke-opacity=".2" stroke-width="6" stroke-miterlimit="10" stroke-linejoin="round"/><path d="M147.609 71.449l2.12-19.442-56.374 21.518 54.254-2.076zm2.121-19.442l50.365 29.977-52.485-10.535 2.12-19.442z" stroke="#05B8B1" stroke-opacity=".2" stroke-width="6" stroke-miterlimit="10" stroke-linejoin="round"/><path d="M147.61 71.449l29.066 52.458 23.419-41.923-52.485-10.535z" stroke="#05B8B1" stroke-opacity=".2" stroke-width="6" stroke-miterlimit="10" stroke-linejoin="round"/><path d="M176.675 123.906l16.456 15.088 6.964-57.01-23.42 41.922z" stroke="#05B8B1" stroke-opacity=".2" stroke-width="6" stroke-miterlimit="10" stroke-linejoin="round"/><path d="M176.675 123.906l-41.853 35.455 58.31-20.367-16.457-15.088zm-67.59-5.259l25.737 40.714 41.853-35.455-67.59-5.259zM93.356 73.525l-7.936 53.389 23.665-8.267-15.729-45.122z" stroke="#05B8B1" stroke-opacity=".2" stroke-width="6" stroke-miterlimit="10" stroke-linejoin="round"/><path d="M85.42 126.914l49.402 32.447-25.737-40.714-23.665 8.267z" stroke="#05B8B1" stroke-opacity=".2" stroke-width="6" stroke-miterlimit="10" stroke-linejoin="round"/><path d="M210.916 1l-71.792 199.956L1 72.736 210.916 1z" stroke="#05B8B1" stroke-opacity=".2" stroke-width="2" stroke-miterlimit="10" stroke-linejoin="round"/><path d="M210.915 1L205.9 149.97l-66.777 50.985L210.915 1z" stroke="#05B8B1" stroke-opacity=".2" stroke-width="2" stroke-miterlimit="10" stroke-linejoin="round"/></svg>