<svg width="172" height="188" fill="none" xmlns="http://www.w3.org/2000/svg"><path d="M152.522 162.511l-34.987 18.781-39.76 3.53 8.37-33.846 43.077-22.128 39.036 8.882-15.736 24.781zM55.355 59.98l73.867 68.868-43.078 22.128L55.355 59.98z" stroke="#9559A4" stroke-opacity=".2" stroke-width="6" stroke-miterlimit="10" stroke-linejoin="round"/><path d="M55.355 59.98l22.42 124.842 8.37-33.846-30.79-90.996zm112.899 77.75L55.356 59.98l73.866 68.868 39.032 8.882z" stroke="#9559A4" stroke-opacity=".2" stroke-width="6" stroke-miterlimit="10" stroke-linejoin="round"/><path d="M117.535 181.292L55.355 59.98l22.42 124.842 39.76-3.53zm34.987-18.781L55.356 59.981l62.179 121.311 34.987-18.781zM12.8 11.521l14.33-6.84L46.038 3l-3.98 16.098-20.493 10.526L3 25.4l9.8-13.878z" stroke="#9559A4" stroke-opacity=".2" stroke-width="2" stroke-miterlimit="10" stroke-linejoin="round"/><path d="M56.704 62.383L21.566 29.624 42.06 19.1l14.645 43.284z" stroke="#9559A4" stroke-opacity=".2" stroke-width="2" stroke-miterlimit="10" stroke-linejoin="round"/><path d="M56.704 62.383L46.038 3l-3.98 16.099 14.646 43.284z" stroke="#9559A4" stroke-opacity=".2" stroke-width="2" stroke-miterlimit="10" stroke-linejoin="round"/><path d="M3 25.4l53.704 36.983-35.138-32.759L3 25.4z" stroke="#9559A4" stroke-opacity=".2" stroke-width="2" stroke-miterlimit="10" stroke-linejoin="round"/><path d="M27.129 4.68l29.574 57.703L46.038 3l-18.91 1.68z" stroke="#9559A4" stroke-opacity=".2" stroke-width="2" stroke-miterlimit="10" stroke-linejoin="round"/><path d="M12.8 11.521l43.904 50.862L27.128 4.68l-14.33 6.841z" stroke="#9559A4" stroke-opacity=".2" stroke-width="6" stroke-miterlimit="10" stroke-linejoin="round"/><path d="M56.704 62.383L3 25.4l9.8-13.879L27.13 4.68 46.038 3l10.665 59.383z" stroke="#9559A4" stroke-opacity=".2" stroke-width="6" stroke-miterlimit="10" stroke-linejoin="round"/></svg>