<svg width="216" height="186" fill="none" xmlns="http://www.w3.org/2000/svg"><path d="M29.102 112.636l87.994-70.796 28.957 100.428-116.951-29.632z" stroke="#45A2DA" stroke-opacity=".2" stroke-width="2" stroke-miterlimit="10" stroke-linejoin="round"/><path d="M29.22 112.636l51.457 70.082 65.495-40.45-116.951-29.632z" stroke="#45A2DA" stroke-opacity=".2" stroke-width="2" stroke-miterlimit="10" stroke-linejoin="round"/><path d="M146.055 142.268l36.469 18.348 30.252-91.27-66.721 72.922zM117.217 41.84L140.492 3l72.406 66.346-95.681-27.506zM33.54 25.802L140.491 3l-23.275 38.84-83.678-16.038zM3 113.48l26.101-.843 4.319-86.834L3 113.48z" stroke="#45A2DA" stroke-opacity=".2" stroke-width="2" stroke-miterlimit="10" stroke-linejoin="round"/><path d="M3 113.48l77.678 69.238-51.577-70.082L3 113.48zm77.679 69.238l101.843-22.102-36.469-18.348-65.374 40.45z" stroke="#45A2DA" stroke-opacity=".2" stroke-width="2" stroke-miterlimit="10" stroke-linejoin="round"/><path d="M33.42 25.803l31.382 16.87L3 113.48l30.42-87.677zm31.383 16.87L140.493 3 33.42 25.802l31.383 16.871zm0 0L182.33 70.141l-87.023 73.703-30.505-101.17zm30.505 101.171l87.216 16.772-101.845 22.102 14.629-38.874z" stroke="#45A2DA" stroke-opacity=".2" stroke-width="6" stroke-miterlimit="10" stroke-linejoin="round"/><path d="M182.331 70.141l30.446-.795-30.255 91.27-.191-90.475z" stroke="#45A2DA" stroke-opacity=".2" stroke-width="6" stroke-miterlimit="10" stroke-linejoin="round"/><path d="M140.492 3l41.839 67.142 30.446-.796L140.492 3zM3 113.48l92.308 30.364-14.63 38.874L3 113.48z" stroke="#45A2DA" stroke-opacity=".2" stroke-width="6" stroke-miterlimit="10" stroke-linejoin="round"/></svg>