<svg width="49" height="49" viewBox="0 0 49 49" fill="none" xmlns="http://www.w3.org/2000/svg">
<g clip-path="url(#clip0)">
<path d="M46.1638 3.67627H27.6146C26.0718 3.67627 24.8213 4.92714 24.8213 6.46998V16.9622C24.8213 18.5054 26.0718 19.7559 27.6146 19.7559H34.2129L33.1463 24.0603C33.0076 24.621 33.6529 25.0435 34.1112 24.6917L40.5364 19.7563H46.1638C47.7067 19.7563 48.9575 18.5054 48.9575 16.9626V6.46998C48.9575 4.92714 47.7067 3.67627 46.1638 3.67627Z" fill="#88DBFD"/>
<path d="M33.9712 20.7309L33.1461 24.0604C33.0074 24.6211 33.6526 25.0436 34.111 24.6918L40.5362 19.7563H35.2403L33.9712 20.7309Z" fill="#5ABFE9"/>
<path d="M46.164 3.67627H40.8682C42.411 3.67627 43.6619 4.92714 43.6619 6.46998V16.9622C43.6619 18.5054 42.411 19.7559 40.8682 19.7559H46.164C47.7068 19.7559 48.9577 18.5054 48.9577 16.9622V6.46998C48.9577 4.92714 47.7068 3.67627 46.164 3.67627Z" fill="#5ABFE9"/>
<path d="M32.7078 11.686L35.0275 10.1794C35.0731 10.1428 35.137 10.1338 35.2009 10.1338C35.4746 10.1338 35.8219 10.4258 35.8219 10.8003C35.8219 10.9555 35.758 11.0923 35.6574 11.1562L34.0503 12.1974L35.6574 13.2382C35.758 13.3021 35.8219 13.4393 35.8219 13.5944C35.8219 13.9686 35.4746 14.261 35.2009 14.261C35.137 14.261 35.0731 14.2516 35.0275 14.2154L32.7078 12.7088C32.4981 12.5716 32.4248 12.3525 32.4248 12.1974C32.4248 12.0419 32.4981 11.8228 32.7078 11.686Z" fill="#F2F2F2"/>
<path d="M40.9535 8.161C40.9535 8.21595 40.9441 8.27988 40.9168 8.33446L37.7025 14.9185C37.6386 15.0554 37.4652 15.147 37.2917 15.147C36.981 15.147 36.7803 14.8912 36.7803 14.6628C36.7803 14.6082 36.7986 14.5443 36.8259 14.4894L40.0312 7.90529C40.1041 7.75015 40.2503 7.67725 40.4148 7.67725C40.6705 7.67725 40.9535 7.86865 40.9535 8.161Z" fill="#F2F2F2"/>
<path d="M45.0272 12.7088L42.7079 14.2154C42.6623 14.2516 42.5983 14.261 42.5344 14.261C42.2604 14.261 41.9131 13.969 41.9131 13.5944C41.9131 13.4393 41.977 13.3021 42.0776 13.2382L43.6847 12.1974L42.0776 11.1562C41.977 11.0923 41.9131 10.9555 41.9131 10.8003C41.9131 10.4258 42.2604 10.1338 42.5344 10.1338C42.5983 10.1338 42.6623 10.1428 42.7079 10.1794L45.0272 11.686C45.2373 11.8228 45.3102 12.0419 45.3102 12.1974C45.3102 12.3525 45.2373 12.5716 45.0272 12.7088Z" fill="#F2F2F2"/>
<path d="M38.9603 36.7684C38.8212 34.3979 37.3161 32.4659 35.0765 31.4169C32.3347 30.1335 24.868 28.191 24.868 28.191C24.1465 28.0572 23.6235 27.4277 23.6235 26.6938V22.4253H15.5059V26.6938C15.5059 27.4277 14.9825 28.0568 14.261 28.191C14.261 28.191 6.79469 30.1335 4.05295 31.4169C1.8129 32.4659 0.307817 34.3979 0.168749 36.7684L0.000146853 46.944C-0.0133114 48.0752 0.899981 48.9997 2.0316 48.9997H37.0974C38.2291 48.9997 39.1423 48.0752 39.1289 46.944L38.9603 36.7684Z" fill="#FCC18B"/>
<path d="M38.9608 36.7684C38.8217 34.3979 37.3166 32.4659 35.0769 31.4169C32.3352 30.1335 24.8685 28.191 24.8685 28.191C24.147 28.0572 23.6239 27.4277 23.6239 26.6938V22.4253H18.3281V29.2535C18.3281 29.9873 18.8511 30.6165 19.5726 30.7507C19.5726 30.7507 27.0394 32.6932 29.7811 33.9766C32.0208 35.0256 33.5259 36.9576 33.6649 39.3281L33.8249 48.9997H37.0979C38.2295 48.9997 39.1428 48.0752 39.1294 46.944L38.9608 36.7684Z" fill="#EAAB65"/>
<path d="M11.1491 11.6211H10.0833C9.69746 11.6211 9.34193 11.7516 9.05819 11.9706C8.56584 12.3512 8.35013 12.9912 8.46117 13.6036L8.87987 15.9075C9.20436 17.6156 11.1517 16.835 11.1517 16.835L11.1491 11.6211Z" fill="#EAAB65"/>
<path d="M27.9802 11.6211H29.0456C29.4318 11.6211 29.7873 11.7516 30.0707 11.9706C30.563 12.3512 30.7791 12.9912 30.6677 13.6036L30.2494 15.9075C29.9245 17.6156 27.9775 16.835 27.9775 16.835L27.9802 11.6211Z" fill="#FCC18B"/>
<path d="M25.4715 2.86344C24.0857 1.58229 22.138 0.464134 19.5652 0.433105C16.9921 0.464134 15.0443 1.58229 13.6585 2.86344C11.8914 4.49787 10.9336 6.92447 10.9336 9.4292L10.9362 18.1617C10.9362 22.2901 16.3023 26.5657 19.5652 26.5657C22.8281 26.5657 28.1942 22.2901 28.1942 18.1617L28.1964 9.4292C28.1964 6.92484 27.239 4.49787 25.4715 2.86344Z" fill="#FCC18B"/>
<path d="M25.4702 2.86344C24.0844 1.58229 22.1367 0.464134 19.5639 0.433105C18.5934 0.444695 17.7119 0.611427 16.916 0.882835C18.2301 1.33107 19.3112 2.06567 20.1744 2.86344C21.9419 4.49787 22.8993 6.92484 22.8993 9.4292L22.8971 18.1617C22.8971 21.2855 19.8249 24.4931 16.916 25.8692C17.8514 26.3118 18.7699 26.5657 19.5639 26.5657C22.8268 26.5657 28.1929 22.2901 28.1929 18.1617L28.1951 9.4292C28.1951 6.92484 27.2377 4.49787 25.4702 2.86344Z" fill="#EAAB65"/>
<path d="M24.9038 0H14.2251C11.4773 0 9.25 2.22734 9.25 4.97507V11.8399C9.25 11.8399 10.6201 11.8089 11.5005 12.6803C11.6837 12.8616 11.9951 12.7293 11.9951 12.4713V7.09063C11.9951 5.8764 12.9798 4.8917 14.1944 4.8917H16.1926C16.7167 4.8917 17.2248 5.07301 17.6304 5.40461L17.8263 5.56461C18.3167 5.96574 18.931 6.18481 19.5646 6.18481C20.1983 6.18481 20.8121 5.96574 21.3026 5.56461L21.4989 5.40461C21.9045 5.07301 22.4125 4.8917 22.9367 4.8917H24.9348C26.1491 4.8917 27.1338 5.8764 27.1338 7.09063V12.4713C27.1338 12.7293 27.4456 12.8616 27.6287 12.6803C28.5091 11.8089 29.8789 11.8399 29.8789 11.8399V4.97507C29.8789 2.22734 27.6515 0 24.9038 0Z" fill="#426175"/>
<path d="M24.9038 0H23.0566C23.9864 1.09423 24.5692 2.73763 24.5842 4.8917H24.9348C26.149 4.8917 27.1337 5.8764 27.1337 7.091V12.4713C27.1337 12.7293 27.4455 12.862 27.6287 12.6803C28.5091 11.8092 29.8789 11.8403 29.8789 11.8403V4.97507C29.8789 2.22734 27.6515 0 24.9038 0Z" fill="#2C4456"/>
<path d="M35.0765 31.4175C33.4809 30.6705 30.2857 29.7004 27.8927 29.02L27.3754 29.2159C22.3427 31.1221 16.7867 31.1221 11.7541 29.2159L11.2363 29.02C8.84334 29.7004 5.6485 30.6705 4.05295 31.4175C1.8129 32.4661 0.307817 34.3981 0.168749 36.7686L0.000146853 46.9442C-0.0133114 48.0754 0.899981 48.9999 2.0316 48.9999H37.0974C38.2291 48.9999 39.1423 48.0754 39.1289 46.9442L38.9603 36.7686C38.8212 34.3981 37.3161 32.4661 35.0765 31.4175Z" fill="#33BCA5"/>
<path d="M32.0139 46.4498H6.74453C5.97591 46.4498 5.33814 45.8558 5.28319 45.0891L4.24989 30.5885C4.18933 29.7407 4.86075 29.0195 5.71086 29.0195H33.0476C33.8973 29.0195 34.5691 29.7407 34.5085 30.5885L33.4752 45.0894C33.4203 45.8558 32.7825 46.4498 32.0139 46.4498Z" fill="#F2F2F2"/>
<path d="M33.0476 29.02H27.7129C28.563 29.02 29.2344 29.7412 29.1739 30.589L28.0434 46.45H32.0139C32.7825 46.45 33.4203 45.8559 33.4753 45.0892L34.5086 30.5887C34.5691 29.7412 33.8977 29.02 33.0476 29.02Z" fill="#CDD6DF"/>
<path d="M33.8264 49.0003H5.30312C4.59917 49.0003 4.02832 48.4294 4.02832 47.7255C4.02832 47.0212 4.59917 46.4507 5.30312 46.4507H33.8264C34.5303 46.4507 35.1012 47.0212 35.1012 47.7255C35.1012 48.4294 34.5303 49.0003 33.8264 49.0003Z" fill="#CDD6DF"/>
<path d="M21.6053 38.3198C21.6053 39.447 20.6916 40.3603 19.5648 40.3603C18.4377 40.3603 17.5244 39.447 17.5244 38.3198C17.5244 37.1931 18.4377 36.2798 19.5648 36.2798C20.6916 36.2798 21.6053 37.1931 21.6053 38.3198Z" fill="white"/>
</g>
<defs>
<clipPath id="clip0">
<rect width="49" height="49" fill="white"/>
</clipPath>
</defs>
</svg>
