<svg width="166" height="166" viewBox="0 0 166 166" fill="none" xmlns="http://www.w3.org/2000/svg">
<g clip-path="url(#clip0)">
<path d="M93.1241 36.7697H72.9453V10.0888C72.9466 4.51753 77.4628 0 83.0354 0C88.6079 0 93.1241 4.51753 93.1241 10.0888V36.7697Z" fill="#B2785B"/>
<path d="M127.283 85.1502L86.4847 74.6701C84.447 74.1471 82.3092 74.1471 80.2714 74.6701L39.473 85.1502C35.1353 86.2635 31.7323 89.6108 30.5393 93.9282C27.9911 103.149 25.2517 119.662 32.9063 133.056C41.1258 147.441 60.4611 151.637 73.0525 162.25C78.9847 167.25 87.7715 167.25 93.7024 162.25C106.295 151.637 125.63 147.441 133.85 133.056C141.503 119.662 138.765 103.149 136.217 93.9282C135.024 89.6108 131.62 86.2635 127.283 85.1502Z" fill="#FCE6D4"/>
<path d="M82.6587 137.33C78.9644 136.415 75.8349 135.15 73.1842 133.683C61.6871 127.318 63.1055 110.281 75.5044 105.928C97.9008 98.0658 126.009 98.9207 126.009 98.9207L126.343 84.9083L86.4847 74.6701C84.447 74.1471 82.3092 74.1471 80.2714 74.6701L39.473 85.149C35.1353 86.2635 31.7323 89.6108 30.5393 93.9269C27.9911 103.149 25.2517 119.662 32.9063 133.056C41.1258 147.441 60.4611 151.635 73.0525 162.25C78.9847 167.25 87.7715 167.25 93.7024 162.25C96.9585 159.507 100.664 157.19 104.512 155.018C100.351 147.866 93.4795 140.015 82.6587 137.33Z" fill="#EFD4BF"/>
<path d="M15.8582 73.0251C9.36374 88.4686 23.7991 104.525 39.8542 99.739C52.1416 96.075 66.9468 93.1761 83.0349 93.1761C99.1229 93.1761 113.928 96.075 126.215 99.739C142.271 104.525 156.706 88.4686 150.211 73.0251C139.949 48.6213 120.271 22.5229 83.0349 22.5229C45.8004 22.5229 26.1205 48.6213 15.8582 73.0251Z" fill="#DD9F80"/>
<path d="M61.6507 123.797C61.6507 119.393 57.1686 115.824 51.6404 115.824C46.111 115.824 41.6289 119.393 41.6289 123.797C41.6289 128.199 46.111 131.768 51.6404 131.768C57.1686 131.768 61.6507 128.199 61.6507 123.797Z" fill="#FFA6BB"/>
<path d="M124.442 123.797C124.442 119.393 119.96 115.824 114.43 115.824C108.902 115.824 104.42 119.393 104.42 123.797C104.42 128.199 108.902 131.768 114.43 131.768C119.96 131.768 124.442 128.199 124.442 123.797Z" fill="#FFA6BB"/>
<path d="M109.975 119.42C108.592 119.42 107.47 118.299 107.47 116.915V112.757C107.47 111.373 108.592 110.252 109.975 110.252C111.359 110.252 112.48 111.373 112.48 112.757V116.915C112.48 118.299 111.359 119.42 109.975 119.42Z" fill="#57565C"/>
<path d="M56.0959 119.42C54.7117 119.42 53.5908 118.299 53.5908 116.915V112.757C53.5908 111.373 54.7117 110.252 56.0959 110.252C57.4789 110.252 58.601 111.373 58.601 112.757V116.915C58.601 118.299 57.4789 119.42 56.0959 119.42Z" fill="#57565C"/>
<path d="M90.0022 121.777C90.0022 117.221 86.8828 113.528 83.0353 113.528C79.1877 113.528 76.0684 117.221 76.0684 121.777C76.0684 126.332 79.1877 130.027 83.0353 130.027C86.8828 130.027 90.0022 126.332 90.0022 121.777Z" fill="#57565C"/>
<path d="M53.5905 63.8965C44.2806 49.1686 58.6019 26.8545 58.6019 26.8545C36.683 35.2728 23.5926 54.6309 15.8582 73.0253C9.36374 88.4687 23.7991 104.525 39.8542 99.7379C52.1403 96.0752 66.9455 93.1762 83.0348 93.1762C93.6948 93.1762 103.781 94.4465 112.955 96.3703C95.1322 76.8703 61.8479 76.9602 53.5905 63.8965Z" fill="#C68D6D"/>
<path d="M97.6712 46.4393C97.6712 49.5219 95.1725 52.0207 92.0911 52.0207C89.0085 52.0207 86.5098 49.5219 86.5098 46.4393C86.5098 43.3567 89.0085 40.8579 92.0911 40.8579C95.1725 40.8579 97.6712 43.3567 97.6712 46.4393Z" fill="#C68D6D"/>
<path d="M123.642 55.9798C123.642 59.0624 121.143 61.5612 118.061 61.5612C114.978 61.5612 112.479 59.0624 112.479 55.9798C112.479 52.8972 114.978 50.3984 118.061 50.3984C121.143 50.3984 123.642 52.8972 123.642 55.9798Z" fill="#C68D6D"/>
<path d="M104.287 69.3096C104.287 72.3922 101.788 74.891 98.7054 74.891C95.6228 74.891 93.124 72.3922 93.124 69.3096C93.124 66.227 95.6228 63.7295 98.7054 63.7295C101.788 63.7295 104.287 66.227 104.287 69.3096Z" fill="#C68D6D"/>
</g>
<defs>
<clipPath id="clip0">
<rect width="166" height="166" fill="white"/>
</clipPath>
</defs>
</svg>
