<svg width="21" height="21" fill="none" xmlns="http://www.w3.org/2000/svg"><path d="M21 20.3H0v.7h21v-.7zm-19.6-.7h3.5a.35.35 0 00.35-.35v-6.3a.35.35 0 00-.35-.35H1.4a.35.35 0 00-.35.35v6.3c0 .193.157.35.35.35zm9.8 0h3.5a.35.35 0 00.35-.35V8.75a.35.35 0 00-.35-.35h-3.5a.35.35 0 00-.35.35v10.5c0 .194.157.35.35.35zm-4.9 0h3.5a.35.35 0 00.35-.35V4.55a.35.35 0 00-.35-.35H6.3a.35.35 0 00-.35.35v14.7c0 .194.157.35.35.35zm9.8 0h3.5a.35.35 0 00.35-.35V.35A.35.35 0 0019.6 0h-3.5a.35.35 0 00-.35.35v18.9c0 .193.157.35.35.35z" fill="#fff"/></svg>