<svg width="166" height="166" viewBox="0 0 166 166" fill="none" xmlns="http://www.w3.org/2000/svg">
<g clip-path="url(#clip0)">
<path d="M79.9254 30.2383C79.9254 30.2383 74.4023 10.7231 60.4103 5.9371C50.3835 2.50621 43.5711 3.61438 36.9931 0.58876C32.8086 -1.33629 27.9985 1.69186 27.9301 6.29552C27.7414 19.0895 31.665 38.4907 57.0971 44.4204C56.3601 43.8618 79.9254 44.4204 79.9254 44.4204V30.2383Z" fill="#9AD880"/>
<path d="M30.8809 23.7592C34.4485 32.5954 41.9651 40.8921 57.0957 44.4205C56.3599 43.862 79.924 44.4205 79.924 44.4205V30.2385C79.924 30.2385 74.4009 10.7233 60.4101 5.93729C57.9544 5.09761 55.6925 4.52896 53.5787 4.10596C54.2145 5.52062 54.9351 7.22403 55.6342 9.08702C57.829 14.9382 53.4951 21.2047 47.245 21.1528C42.0917 21.111 36.0342 21.6606 30.8809 23.7592Z" fill="#8DC971"/>
<path d="M75.7876 47.6578C75.7876 47.6578 68.2432 23.734 81.3816 5.76139C85.385 0.286395 93.3435 -0.313916 98.2068 4.41259C98.2891 4.49237 105.85 11.743 99.2605 19.8624C94.5214 25.7021 89.6213 35.5642 91.5831 50.9354C91.2855 50.6378 75.7876 47.6578 75.7876 47.6578Z" fill="#B2785B"/>
<path d="M113.066 33.416C105.215 33.416 97.7887 35.2258 91.1777 38.4503C86.0168 40.9668 79.9693 40.9668 74.8084 38.4503C68.1974 35.2258 60.7708 33.416 52.9198 33.416C25.3043 33.416 2.91797 55.8023 2.91797 83.4179C2.91797 111.033 25.3043 166 52.9198 166C59.9767 166 66.6903 162.411 72.777 156.608C78.523 151.128 87.4631 151.128 93.2091 156.608C99.2958 162.411 106.009 166 113.066 166C140.682 166 163.068 111.033 163.068 83.4179C163.068 55.8023 140.682 33.416 113.066 33.416Z" fill="#FF737D"/>
<path d="M79.925 135.622C67.4071 128.301 59.5169 116.701 54.5207 104.937C46.823 86.8095 56.6826 66.0418 75.5759 60.4845C96.3107 54.3864 106.679 41.3784 111.268 33.4477C104.083 33.7022 97.2808 35.474 91.1777 38.4503C86.0168 40.968 79.9693 40.968 74.8084 38.4503C68.1974 35.2258 60.7708 33.416 52.9198 33.416C25.3055 33.416 2.91797 55.8023 2.91797 83.4179C2.91797 111.033 25.3043 166 52.9198 166C59.9767 166 66.6903 162.411 72.777 156.608C78.523 151.128 87.4631 151.128 93.2091 156.608C99.2958 162.411 106.009 166 113.066 166C116.016 166 118.907 165.373 121.718 164.218C110.789 149.919 107.831 151.946 79.925 135.622Z" fill="#F46262"/>
<path d="M61.6087 101.739C61.6087 97.3351 57.1266 93.7661 51.5972 93.7661C46.069 93.7661 41.5869 97.3351 41.5869 101.739C41.5869 106.141 46.069 109.711 51.5972 109.711C57.1266 109.711 61.6087 106.141 61.6087 101.739Z" fill="#FFD9E8"/>
<path d="M124.399 101.739C124.399 97.3351 119.917 93.7661 114.388 93.7661C108.859 93.7661 104.377 97.3351 104.377 101.739C104.377 106.141 108.859 109.711 114.388 109.711C119.917 109.711 124.399 106.141 124.399 101.739Z" fill="#FFD9E8"/>
<path d="M82.9934 100.444C79.7512 100.444 76.509 99.3943 73.8025 97.2958C72.7096 96.4485 72.5107 94.8743 73.3593 93.7813C74.2065 92.6883 75.7808 92.4895 76.8737 93.3368C80.4769 96.1319 85.5086 96.1319 89.1117 93.3368C90.2047 92.4895 91.7789 92.6883 92.6262 93.7813C93.4748 94.8743 93.2759 96.4485 92.1817 97.2958C89.4777 99.3943 86.2356 100.444 82.9934 100.444Z" fill="#57565C"/>
<path d="M57.764 95.638C57.2029 94.8148 56.3861 94.7148 56.053 94.7148C55.7212 94.7148 54.8903 94.8047 54.342 95.638C53.5821 96.7943 52.0294 97.116 50.8731 96.3561C49.7168 95.5975 49.3951 94.0435 50.155 92.8873C51.4645 90.8951 53.6695 89.7046 56.053 89.7046C58.4378 89.7046 60.6427 90.8951 61.9522 92.8873C62.7121 94.0435 62.3904 95.5975 61.2341 96.3561C60.8099 96.6348 58.9342 97.3567 57.764 95.638Z" fill="#57565C"/>
<path d="M111.644 95.638C111.082 94.8148 110.265 94.7148 109.933 94.7148C109.601 94.7148 108.769 94.8047 108.222 95.638C107.462 96.7943 105.909 97.116 104.753 96.3561C103.597 95.5975 103.275 94.0435 104.035 92.8873C105.343 90.8951 107.548 89.7046 109.933 89.7046C112.318 89.7046 114.523 90.8951 115.831 92.8873C116.591 94.0435 116.269 95.5975 115.113 96.3561C114.688 96.6348 112.814 97.3567 111.644 95.638Z" fill="#57565C"/>
</g>
<defs>
<clipPath id="clip0">
<rect width="166" height="166" fill="white"/>
</clipPath>
</defs>
</svg>
