<svg width="45" height="45" viewBox="0 0 45 45" fill="none" xmlns="http://www.w3.org/2000/svg">
<path d="M20.5638 33.5578L13.8185 31.3094L11.8411 31.2983L8.38237 41.2357C8.27216 41.5522 8.52862 41.8759 8.86199 41.8409L13.7103 41.3333C13.8457 41.3191 13.9804 41.3659 14.0778 41.4611L17.5631 44.8694C17.8027 45.1038 18.2047 45.0093 18.3148 44.6928L21.7962 34.6904L20.5638 33.5578Z" fill="#0083FD"/>
<path d="M21.7958 34.6903L22.4993 32.6693L12.5422 29.2832L11.8408 31.2983C14.6683 33.3158 18.0918 34.5508 21.7958 34.6903Z" fill="#0072FC"/>
<path d="M24.4354 33.5578L31.1807 31.3094L33.1581 31.2983L36.6169 41.2358C36.7271 41.5523 36.4707 41.876 36.1373 41.841L31.289 41.3333C31.1535 41.3192 31.0189 41.366 30.9216 41.4612L27.4363 44.8695C27.1967 45.1038 26.7947 45.0094 26.6846 44.6929L23.2031 34.6905L24.4354 33.5578Z" fill="#0083FD"/>
<path d="M23.2035 34.6903L22.5 32.6693L32.4571 29.2832L33.1585 31.2983C30.3311 33.3158 26.9075 34.5508 23.2035 34.6903Z" fill="#0072FC"/>
<path d="M22.5015 31.2983C6.18724 31.2983 6.17371 15.7841 6.18724 15.5114C6.61606 6.87252 13.7562 0 22.5015 0C31.2468 0 38.3869 6.87252 38.8158 15.5114C38.8293 15.7841 38.8158 31.2983 22.5015 31.2983Z" fill="#FF9838"/>
<path d="M22.4997 31.023C13.7544 31.023 6.61451 24.1505 6.18561 15.5117C6.17207 15.7844 6.16504 16.0589 6.16504 16.335C6.16504 25.3563 13.4783 32.6696 22.4997 32.6696C31.521 32.6696 38.8343 25.3563 38.8343 16.335C38.8343 16.0589 38.8273 15.7844 38.8138 15.5117C38.3849 24.1505 31.245 31.023 22.4997 31.023Z" fill="#FF8709"/>
<path fill-rule="evenodd" clip-rule="evenodd" d="M35.5171 16.026C35.5182 15.9733 35.5187 15.9207 35.5187 15.8682C35.5187 15.8607 35.5187 15.8532 35.5187 15.8457C35.5187 15.8383 35.5187 15.8308 35.5187 15.8233C35.5187 15.5466 35.509 15.2723 35.4917 15C35.4914 15.0048 35.4911 15.0096 35.4908 15.0143C35.0513 8.30549 29.4705 3 22.6505 3C15.8305 3 10.2496 8.30548 9.81012 15.0143C9.80981 15.0095 9.80951 15.0048 9.80921 15C9.79198 15.2723 9.78223 15.5466 9.78223 15.8233C9.78223 15.8308 9.78223 15.8383 9.78225 15.8457C9.78223 15.8532 9.78223 15.8607 9.78223 15.8682C9.78223 15.9082 9.78257 15.9482 9.78326 15.9883C9.87162 23.0192 15.5986 28.6915 22.6505 28.6915C29.6897 28.6915 35.4088 23.0394 35.5171 16.026Z" fill="#BC672E"/>
</svg>
