<svg width="50" height="50" viewBox="0 0 50 50" fill="none" xmlns="http://www.w3.org/2000/svg">
<path d="M43.75 11.7188V44.5312C43.75 45.3601 43.4208 46.1549 42.8347 46.741C42.2487 47.327 41.4538 47.6562 40.625 47.6562H14.0625C13.3863 47.6562 12.7284 47.4369 12.1875 47.0312C11.9732 46.873 11.7814 46.6864 11.6172 46.4766C11.1786 45.9228 10.9392 45.2376 10.9375 44.5312V11.7188C10.9375 10.8899 11.2667 10.0951 11.8528 9.50904C12.4388 8.92299 13.2337 8.59375 14.0625 8.59375H40.625C41.4538 8.59375 42.2487 8.92299 42.8347 9.50904C43.4208 10.0951 43.75 10.8899 43.75 11.7188Z" fill="#A97C50"/>
<path d="M40.625 12.5V38.2812H35.9375C35.5235 38.2825 35.1268 38.4475 34.834 38.7403C34.5413 39.033 34.3762 39.4297 34.375 39.8438V44.5312H14.8438C14.6365 44.5312 14.4378 44.4489 14.2913 44.3024C14.1448 44.1559 14.0625 43.9572 14.0625 43.75V12.5C14.0625 12.2928 14.1448 12.0941 14.2913 11.9476C14.4378 11.8011 14.6365 11.7188 14.8438 11.7188H39.8438C40.051 11.7188 40.2497 11.8011 40.3962 11.9476C40.5427 12.0941 40.625 12.2928 40.625 12.5Z" fill="#E6E7E8"/>
<path d="M30.336 33.9922L29.7813 36.7578L28.125 38.4141C27.8346 38.7088 27.6719 39.1058 27.6719 39.5195C27.6719 39.9332 27.8346 40.3303 28.125 40.625C28.2701 40.7703 28.4425 40.8855 28.6321 40.9642C28.8218 41.0428 29.0251 41.0833 29.2305 41.0833C29.4358 41.0833 29.6391 41.0428 29.8288 40.9642C30.0185 40.8855 30.1908 40.7703 30.336 40.625L31.9922 38.9688L34.7578 38.4141L35.3047 37.8594L40.625 32.5391V23.7109L30.336 33.9922Z" fill="#D8D7DA"/>
<path d="M43.75 20.5859L40.625 23.7094V32.5391L43.75 29.4141V20.5859Z" fill="#8B5E3C"/>
<path d="M21.625 40.9922C21.442 41.7122 21.1551 42.4017 20.7734 43.0391L21.8906 44.5312H14.8438C14.6365 44.5312 14.4378 44.4489 14.2913 44.3024C14.1448 44.1559 14.0625 43.9572 14.0625 43.75V28.9062H15.625L15.9922 31.5C16.7122 31.683 17.4017 31.9699 18.0391 32.3516L20.1406 30.7734L22.3516 32.9844L20.7734 35.0859C21.1551 35.7233 21.442 36.4128 21.625 37.1328L24.2188 37.5V40.625L21.625 40.9922Z" fill="#D8D7DA"/>
<path d="M47 18.625C46.7115 18.3339 46.3684 18.1027 45.9903 17.9445C45.6123 17.7863 45.2067 17.7043 44.7969 17.7031C44.4395 17.7025 44.0849 17.766 43.75 17.8906C43.3113 18.044 42.9133 18.2951 42.5859 18.625L41.4766 19.7266L43.75 22L45.8984 24.1484L47 23.0391C47.2914 22.7501 47.5228 22.4063 47.6806 22.0275C47.8385 21.6487 47.9198 21.2424 47.9198 20.832C47.9198 20.4217 47.8385 20.0153 47.6806 19.6365C47.5228 19.2577 47.2914 18.9139 47 18.625Z" fill="#E6E7E8"/>
<path d="M43.75 22L41.4766 19.7266L40.625 20.5781V20.5859L39.8203 21.3828L40.625 22.1875L42.0312 23.5938L43.75 25.3125L44.2422 25.8047L45.8984 24.1484L43.75 22Z" fill="#FFA733"/>
<path d="M40.625 38.2812L34.375 44.5312V39.8438C34.3762 39.4297 34.5413 39.033 34.834 38.7403C35.1268 38.4475 35.5235 38.2825 35.9375 38.2812H40.625Z" fill="#D1D3D4"/>
<path d="M40.625 38.2812V43.75C40.625 43.9572 40.5427 44.1559 40.3962 44.3024C40.2497 44.4489 40.051 44.5312 39.8438 44.5312H34.375L40.625 38.2812Z" fill="#E6E7E8"/>
<path d="M30.4297 37.4063L28.7735 39.0625C28.5545 39.2802 28.2759 39.4281 27.973 39.4876C27.67 39.5471 27.3562 39.5155 27.0712 39.3968C26.7862 39.2781 26.5427 39.0777 26.3716 38.8207C26.2004 38.5638 26.1091 38.2619 26.1094 37.9531C26.1085 37.7487 26.1481 37.5461 26.2259 37.3571C26.3036 37.168 26.418 36.9962 26.5625 36.8516L28.2188 35.1953L30.4297 37.4063Z" fill="#787680"/>
<path d="M33.7422 36.2969L33.1953 36.8516L30.4297 37.4062L28.2188 35.1953L28.7734 32.4297L29.3281 31.8828L31.5313 34.0937H31.5391L33.7422 36.2969Z" fill="#898890"/>
<path d="M40.625 22.1875L39.8203 21.3828L29.3281 31.8828L31.5312 34.0938H31.5391L40.625 25L42.0312 23.5938L40.625 22.1875Z" fill="#00CCB3"/>
<path d="M43.75 25.3125L42.0312 23.5938L40.625 25L31.5391 34.0938L33.7422 36.2969L40.625 29.4141L43.75 26.2891L44.2422 25.8047L43.75 25.3125Z" fill="#00B39D"/>
<path d="M24.4378 20.875C24.8363 21.4495 25.0307 22.1411 24.9898 22.8392C24.9488 23.5372 24.675 24.2013 24.212 24.7253C23.749 25.2494 23.1237 25.603 22.436 25.7296C21.7484 25.8562 21.0381 25.7486 20.4188 25.4238C19.7996 25.0991 19.3071 24.5761 19.0202 23.9384C18.7334 23.3007 18.6686 22.5852 18.8364 21.9064C19.0042 21.2276 19.3948 20.6247 19.9457 20.1941C20.4966 19.7635 21.176 19.5301 21.8753 19.5313C22.379 19.5327 22.8749 19.6556 23.321 19.8895C23.7671 20.1234 24.1502 20.4615 24.4378 20.875Z" fill="#FF5023"/>
<path d="M18.75 12.5H35.9375V14.8438H18.75V12.5Z" fill="#FFA733"/>
<path d="M34.875 8.59375C34.3053 8.09132 33.5721 7.81359 32.8125 7.8125H30.4688V5.46875C30.4688 4.63995 30.1395 3.84509 29.5535 3.25904C28.9674 2.67299 28.1726 2.34375 27.3438 2.34375C26.5149 2.34375 25.7201 2.67299 25.134 3.25904C24.548 3.84509 24.2188 4.63995 24.2188 5.46875V7.8125H21.875C21.0468 7.81436 20.253 8.14419 19.6673 8.72984C19.0817 9.31549 18.7519 10.1093 18.75 10.9375V12.5H35.9375V10.9375C35.9377 10.4937 35.8431 10.0549 35.6598 9.65068C35.4766 9.24644 35.209 8.88607 34.875 8.59375Z" fill="#FF9811"/>
<path d="M22.3516 45.1406L21.3984 46.0938L20.1406 47.3516L18.4687 46.0938L18.0391 45.7734C17.8444 45.8909 17.6436 45.9978 17.4375 46.0938C16.9755 46.3205 16.4911 46.4986 15.9922 46.625L15.8438 47.6562H14.0625C13.3863 47.6562 12.7284 47.4369 12.1875 47.0312L12.1328 46.625C11.9609 46.5781 11.7812 46.5313 11.6172 46.4766C11.1786 45.9228 10.9392 45.2376 10.9375 44.5312V31.9219C11.3224 31.7454 11.7224 31.6042 12.1328 31.5L12.5 28.9062H14.0625V43.75C14.0625 43.9572 14.1448 44.1559 14.2913 44.3024C14.4378 44.4489 14.6365 44.5312 14.8437 44.5312H21.8906L22.3516 45.1406Z" fill="#8B5E3C"/>
<path d="M20.0625 39.4297C19.8795 40.1497 19.5926 40.8392 19.2109 41.4766L20.7891 43.5781L19.8359 44.5312L18.5781 45.7891L16.9062 44.5312L16.4766 44.2109C16.2819 44.3284 16.0811 44.4353 15.875 44.5312C15.413 44.758 14.9286 44.9361 14.4297 45.0625L14.0625 47.6562H10.9375L10.5703 45.0625C9.85032 44.8795 9.1608 44.5926 8.52344 44.2109L6.42188 45.7891L4.21094 43.5781L5.78906 41.4766C5.40741 40.8392 5.12055 40.1497 4.9375 39.4297L2.34375 39.0625V35.9375L4.9375 35.5703C5.12055 34.8503 5.40741 34.1608 5.78906 33.5234L4.21094 31.4219L6.42188 29.2109L8.52344 30.7891C9.1608 30.4074 9.85032 30.1205 10.5703 29.9375L10.9375 27.3438H14.0625L14.4297 29.9375C15.1497 30.1205 15.8392 30.4074 16.4766 30.7891L18.5781 29.2109L20.7891 31.4219L19.2109 33.5234C19.5926 34.1608 19.8795 34.8503 20.0625 35.5703L22.6562 35.9375V39.0625L20.0625 39.4297Z" fill="#FF9811"/>
<path d="M14.0619 33.9141C13.5681 33.7027 13.0366 33.5937 12.4994 33.5938C11.9623 33.5937 11.4307 33.7027 10.9369 33.9141C10.24 34.2193 9.64712 34.7211 9.23081 35.3579C8.81449 35.9948 8.59277 36.7391 8.59277 37.5C8.59277 38.2609 8.81449 39.0052 9.23081 39.6421C9.64712 40.2789 10.24 40.7807 10.9369 41.0859C11.4307 41.2973 11.9623 41.4063 12.4994 41.4063C13.0366 41.4063 13.5681 41.2973 14.0619 41.0859C14.7589 40.7807 15.3517 40.2789 15.7681 39.6421C16.1844 39.0052 16.4061 38.2609 16.4061 37.5C16.4061 36.7391 16.1844 35.9948 15.7681 35.3579C15.3517 34.7211 14.7589 34.2193 14.0619 33.9141Z" fill="#FFD422"/>
<path d="M26.5625 4.6875H28.125V6.25H26.5625V4.6875Z" fill="#CC7400"/>
<path d="M11.7188 29.6875H13.2812V31.25H11.7188V29.6875Z" fill="#EE8700"/>
<path d="M6.41895 32.5259L7.5238 31.421L8.62865 32.5259L7.5238 33.6307L6.41895 32.5259Z" fill="#EE8700"/>
<path d="M4.6875 36.7188H6.25V38.2812H4.6875V36.7188Z" fill="#EE8700"/>
<path d="M6.41797 42.4688L7.52282 41.3639L8.62768 42.4688L7.52282 43.5736L6.41797 42.4688Z" fill="#EE8700"/>
<path d="M11.7188 43.75H13.2812V45.3125H11.7188V43.75Z" fill="#EE8700"/>
<path d="M16.3613 42.4692L17.4662 41.3644L18.571 42.4692L17.4662 43.5741L16.3613 42.4692Z" fill="#EE8700"/>
<path d="M18.75 36.7188H20.3125V38.2812H18.75V36.7188Z" fill="#EE8700"/>
<path d="M16.3613 32.5269L17.4662 31.422L18.571 32.5269L17.4662 33.6317L16.3613 32.5269Z" fill="#EE8700"/>
<path d="M21.3174 22.8848L25.223 18.9791L26.3277 20.0838L22.4221 23.9895L21.3174 22.8848Z" fill="#D80027"/>
<path d="M27.3438 20.3125H28.9062V21.875H27.3438V20.3125Z" fill="#C6C5CA"/>
<path d="M30.4688 20.3125H33.5938V21.875H30.4688V20.3125Z" fill="#C6C5CA"/>
<path d="M27.3438 23.4375H32.0312V25H27.3438V23.4375Z" fill="#C6C5CA"/>
</svg>
