<svg width="78" height="34" fill="none" xmlns="http://www.w3.org/2000/svg"><path d="M20.744 24.8c1.55 0 3.11-.01 4.66.01.406.01.538-.09.538-.51.01-1.67.03-1.67-1.652-1.67-1.986 0-3.961.01-5.947 0-1.692-.01-2.857-1.19-2.847-2.87 0-.53-.02-1.07.01-1.6.101-1.49 1.287-2.59 2.796-2.6 2.523-.01 5.046-.01 7.569 0 1.195 0 2.219.76 2.624 1.85.172.49.142.68-.476.67-3-.03-5.988 0-8.987-.02-.517 0-.69.1-.669.65.04 1.38.01 1.38 1.398 1.38h5.877c2.107 0 3.252 1.13 3.262 3.21 0 .53-.01 1.06-.091 1.59-.203 1.37-1.297 2.39-2.695 2.4-2.594.02-5.177.02-7.771 0-1.337-.01-2.442-.88-2.746-2.06-.091-.36-.02-.46.365-.45 1.59.03 3.191.02 4.782.02zm33.05-4.47h8.5c.284 0 .395.09.395.38-.01 1.36.04 2.72-.03 4.07-.071 1.39-1.226 2.39-2.665 2.39H51.95c-1.56 0-2.706-1.04-2.746-2.6a140.9 140.9 0 010-6.54c.03-1.5 1.236-2.61 2.776-2.62 2.634-.02 5.269-.02 7.913 0 1.185.01 2.047.58 2.563 1.64.213.45.203.65-.415.65-3.222-.03-6.444-.01-9.666-.03-.476 0-.658.07-.648.6.04 2.02.03 4.05 0 6.07-.01.45.142.55.567.54 2.412-.02 4.823-.02 7.234 0 .497 0 .628-.15.578-.61-.071-.63.283-1.49-.142-1.85-.365-.31-1.206-.09-1.834-.1-.588-.01-1.175 0-1.753-.01-1.388 0-2.107-.54-2.583-1.98zm-45.421 4.3c1.47 0 2.928.02 4.387-.01.466-.01.537.15.436.54-.294 1.19-1.439 2.13-2.695 2.14-2.452.02-4.914.03-7.366 0-1.702-.01-2.888-1.23-2.898-2.92 0-1.98 0-3.96.01-5.94.01-1.72 1.186-2.89 2.918-2.89H10.4c1.318 0 2.32.74 2.746 1.95.183.5.071.67-.476.66-2.817-.02-5.633.01-8.45-.02-.638-.01-.77.18-.76.77.04 1.73.03 3.47.01 5.2 0 .4.081.53.517.52 1.459-.02 2.918 0 4.387 0z" fill="#fff"/><path d="M55.045 4.935c-.628 0-1.246.07-1.874.07-.983.01-1.358-.35-1.408-1.32-.01-.13.09-.33-.183-.33-.142.39.071.83-.233 1.44 0-.65-.334-.53-.597-.53-1.956 0-3.921-.01-5.877 0-.608.01-1.023-.2-1.256-.81.03.82-.608.8-1.104.92-.223.05-.578.29-.649-.15-.05-.31-.243-.72.345-.82.293-.05.395-.3.455-.59.132-.65-.151-1.23-.303-1.82-.092-.37-.568-.39-.862-.57-1.52-.93-3.212-.28-3.748 1.41a2.64 2.64 0 00.01 1.7c.08.23.131.47-.274.35-1.064-.31-1.905.02-2.553 1.02-.7 1.07-.932 2.27-.75 3.51.091.65-.08.85-.699.82-.476-.03-.658.19-.658.67 0 .57-.081 1.15-.173 1.72-.162.99-.152 1.03.963 1.31-.639.27-.79.68-.72 1.2.071.55.173 1.1.223 1.65.03.36.213.77-.324 1.01-.182.08-.223.39-.172.61.253 1.25.263 2.5-.04 3.74-.193.8.232 1.7-.416 2.42-1.013 1.11-1.104 2.62-1.783 3.88-.142.27-.264.63-.142.9.284.66 0 1.25-.142 1.86-.121.54-.314 1.07-.415 1.61-.203 1.02.03 1.27 1.074 1.29.223 0 .445-.01.678-.02.862-.04.892-.1.67-.96-.305-1.2-.224-2.32.8-3.21.111-.1.202-.25.243-.39.192-.69.537-1.31.82-1.96.122-.29.254-.58.193-.9-.101-.56.172-.95.496-1.38.507-.67 1.237-1.23 1.226-2.2 0-.12.091-.25.122-.38.203-.93.861-1.63 1.287-2.46.293.17.263.71.638.72.618.03.8.49 1.074.88.334.47.659.95.973 1.44.182.28.445.49.77.46.719-.07.729.33.719.86-.02.66-.446 1.22-.334 1.93.162.98.324 1.95.597 2.9.304 1.06-.05 2.1-.324 3.13-.142.54.091.74.618.72.385-.01.78-.11 1.145.03.922.35 1.864.22 2.806.22.213 0 .487.05.517-.28.02-.25.01-.5-.273-.62-.223-.1-.456-.19-.68-.3-.88-.44-1.529-1.07-1.61-2.1-.091-1.21.223-2.4.274-3.6.07-1.72.334-3.33-.578-4.98-.76-1.37-1.256-2.89-2.37-4.06-.295-.31-.295-.69-.355-1.06-.041-.22.111-.46.415-.34.517.2.658-.15.84-.5.325-.63.163-1.31.254-1.97.102-.7.334-1.47-.537-1.95-.233-.13-.07-.43 0-.61.112-.28.304-.05.436.02.466.22.912.49 1.378.7.932.42 1.803.51 2.593-.35.304-.34.467-.68.548-1.1.04-.24.06-.63.192-.68.8-.28.365-.81.294-1.24-.122-.7.628-1.7 1.337-1.8.973-.14 1.966.3 2.949-.3.304-.18.982-.17 1.5-.12.637.07 1.286.08 1.934.08.183 0 .507.15.517-.22.01-.41-.334-.22-.507-.22zm-9.21 1.78c-.263.43-.455.92-.972 1.23-.111-.21-.213-.38-.304-.56-.07-.15-.253-.39-.01-.44.527-.1.446-.93 1.064-.82.334.06.344.39.223.59zM77.978 18.03c-.02-1.39-1.236-2.6-2.644-2.62-2.543-.03-5.097-.03-7.64 0-1.448.02-2.644 1.15-2.674 2.57a186.5 186.5 0 000 6.74c.03 1.35 1.256 2.43 2.624 2.44h3.85c1.266 0 2.523.01 3.79 0 1.488-.01 2.674-1.13 2.684-2.59.03-2.18.04-4.36.01-6.54zm-2.563 6.5c0 .42-.122.52-.527.52-2.25-.02-4.499-.02-6.748 0-.405 0-.577-.07-.577-.54.03-2.11.02-4.22 0-6.32 0-.44.121-.56.557-.55 1.145.03 2.29.01 3.445.01 1.104 0 2.208.01 3.303-.01.385-.01.547.06.547.5-.02 2.12-.02 4.26 0 6.39z" fill="#fff"/></svg>