<svg width="39" height="45" fill="none" xmlns="http://www.w3.org/2000/svg"><path d="M21.67 39.1c-1.25.09-2.51.04-3.77.01-.74-.02-.74-.06-.83.71 1.4-.72 2.14-.42 2.23.92-.12 1.33.1 2.68-.17 4.03.43.09.83.09 1.25-.01-.27-.76-.07-1.53-.18-2.28.01-.81.02-1.61.04-2.42.01-.25-.06-.57.35-.54.58.05 1.23-.15 1.7.41.19-.6.15-.88-.62-.83zm17.1 4.75c-.88.58-1.79.37-2.9.33.88-.74 1.63-1.3 2.18-2.07.66-.71.86-1.54.36-2.36-.55-.9-1.52-.81-2.42-.72-.67.07-1.06.38-.73 1.28.28-.95.94-1.15 1.68-.88.67.24.74.9.7 1.54-.01.25-.09.5-.13.75-.59 1.26-1.7 2.07-2.82 3.11 1.25 0 2.31-.02 3.36.01.74 0 .83-.38.72-.99zm-1.1-7.56v-1.01c0-3.42.01-6.83-.02-10.25 0-.64.23-1.28-.02-1.92-.18-.29-.17-.61-.16-.93.01-.5.06-.98-.71-.93-.44.03-.43-.31-.27-.6.14-.24.38-.43.57-.65 0-.13 0-.26.01-.38.32-1.53.36-3-.7-4.31-.3-.38-.26-.68.01-1.11.4-.63.41-1.5 1.18-1.93.1-.06.09-.36.09-.55 0-2.13.03-4.26-.03-6.38-.02-.96-.29-1.89-.03-2.87.11-.39-.06-.8-.54-1.18-1.15-.9-2.55-.16-3.69-.78-.64 1-1.19.07-1.81-.06-1.74-.38-3.53-.1-5.29-.38-.72-.11-1.37.03-1.48.95a.43.43 0 01-.35.4c-.37.09-2.98-.54-3.19-.81-.02-.02-.04-.06-.03-.08.22-.63-.28-.48-.57-.49-1.09-.02-2.19 0-3.28-.03-.9-.03-1.75-.03-2.55.55-.67.49-1.46.71-2.35.69-1.12-.02-2.21-.42-3.28-.41C6.74.85 4.3.44 1.85.79.62.97.25 1.26.54 2.49c.44 1.9.25 3.79-.12 5.65-.27 1.4-.2 2.73.17 4.09.29 1.07.64 2.15.3 3.31-.17.59 0 1.18.38 1.73.54.79.34 1.64-.48 2.1-.25.14-.33.25-.3.5.08.64-.05 1.29.16 1.91.01.66-.25 1.47.29 1.93.69.59.68 1.23.59 1.99-.12 1.05-.12 2.12-.86 2.99-.22.25-.13.62-.13.94-.03 1.52.25 3.02.14 4.54-.11 1.42.06 1.61 1.51 1.7.54.03 1.1.03 1.64-.05 1.09-.16 2.22-.17 3.27-.06 2.42.25 4.85-.12 7.27.24.71.11 1.07.26 1.43.77.22.3.5.88.92.36.52-.65 1.07-.42 1.71-.4.77.02 1.42.82 2.22.33.77-.48 1.62-.59 2.5-.57 3.21.05 6.42-.35 9.64 0 .32.03.64.06.93-.16.09-.07.33-.08.24-.2-.6-.81.29-.51.45-.53 1.11-.15 2.13.28 3.26.69zM27.89 6.5c.67-.17 1.15.33 1.65.63 1.23.74 1.45 1.22 1.09 2.57-.26.96-.54 1.91-.54 2.92 0 .63-.41.82-.9.46-2.23-1.61-4.5-3.18-6.72-5.11 1.92-.53 3.66-1.02 5.42-1.47zM14.46 29.64c-1.75.59-3.44 1.38-5.73 1.5-.8.26-1.39-.67-2.19-1.25-2.13-1.56-1.9-1.24-.97-3.63.45-1.13.96-2.24 1.42-3.37.19-.47.33-.63.77-.2 2.18 2.14 4.35 4.3 6.64 6.33.19.15.59.45.06.62zm18.41-4.98c-.33 1.25-.56 2.52-1.07 3.71-.84 1.97-.86 1.96-2.95 1.86-.26-.01-.51-.05-.77-.06-1.2-.05-1.93-.76-2.73-1.59-1.65-1.71-3.06-3.66-4.88-5.21-.54-.46-1.03-.97-1.46-1.54-.64-.86-1.49-1.52-2.26-2.25-.18-.17-.4-.29-.65-.2.09-.34-.14-.64-.42-.92-1.02-1.03-1.91-2.18-2.95-3.19-2.39-2.3-4.53-4.85-6.94-7.13-.12-.11-.23-.23-.33-.35-.18-.23-.1-.38.12-.56.87-.67 1.74-.66 2.66-.05 1.2.8 2.25 1.86 3.44 2.57 4.18 2.48 8.1 5.36 12.18 7.99 1.41.91 2.73 1.94 4.2 2.75.29.16.59.35.86.23 0 .1.08.17.17.23.51 0 1.02.01 1.08.7.5.8 1.4 1.12 2.08 1.7.43.35.78.71.62 1.31zm-2.68 18.59c-.96.25-1.2-.31-1.45-.96-.43-1.11-.94-2.19-1.51-3.49-.92 2.15-1.75 4.06-2.57 5.98.47.11.87.17.88-.54.01-.4.25-.69.76-.64.48.04.97.01 1.45.01.3 0 .59.02.65.41.15.92.77.96 1.54.77-.21-.58-1.19-1.17.25-1.54zm-2.31-.12c-.39.25-1.05.11-1.59.1-.37-.01-.27-.3-.2-.49.27-.7.56-1.39.87-2.16.4.45.48.92.63 1.36.14.4.62.97.29 1.19zm-13.09-1.62c-.17-1.45-1.05-2.31-2.54-2.51-1.85-.24-3.2.52-3.8 2.12-.18.42-.29.84-.19 1.3.42 1.8 1.89 2.8 3.73 2.55 1.9-.26 2.91-1.52 2.8-3.46zm-1.13 1.18c.02.87-.35 1.52-1.14 1.81-.84.31-1.64.1-2.3-.53-.58-.57-.82-1.28-.86-2.07.01-.1.03-.19.03-.29.05-1.39.59-2.14 1.62-2.25 1.34-.14 2.29.53 2.64 1.84.05.18.11.36.16.54-.05.32-.15.64-.15.95zM4.2 39.4c-.98-.4-2.03-.21-3.05-.29-.83-.06-1.3.05-1.05 1.05.1.43.04.9.05 1.35-.12 1.07.09 2.16-.15 3.27.58.05 1.15.11 1.72.15 2.77.21 3.96-.86 4.02-3.62-.07-.99-.69-1.56-1.54-1.91zm.59 3.47c-.48 1.4-1.54 2.01-2.99 1.73-.48-.09-.72-.35-.72-.86.01-.74-.02-1.48-.04-2.22.01-.35.03-.71.03-1.06.01-1.09.14-1.2 1.24-1.04 1.82.26 2.59 1.34 2.48 3.45z" fill="#fff"/></svg>