<?xml version="1.0" encoding="iso-8859-1"?>
<!-- Generator: Adobe Illustrator 18.0.0, SVG Export Plug-In . SVG Version: 6.00 Build 0)  -->
<!DOCTYPE svg PUBLIC "-//W3C//DTD SVG 1.1//EN" "http://www.w3.org/Graphics/SVG/1.1/DTD/svg11.dtd">
<svg version="1.1" id="Capa_1" xmlns="http://www.w3.org/2000/svg" xmlns:xlink="http://www.w3.org/1999/xlink" x="0px" y="0px"
	 viewBox="0 0 356.62 356.62" style="enable-background:new 0 0 356.62 356.62;" xml:space="preserve" fill="#4CC2F1">
<g>
	<path d="M178.31,0C79.99,0,0,79.99,0,178.311S79.99,356.62,178.31,356.62s178.31-79.989,178.31-178.31S276.63,0,178.31,0z
		 M178.31,326.62C96.532,326.62,30,260.089,30,178.311S96.532,30,178.31,30s148.31,66.532,148.31,148.311
		S260.088,326.62,178.31,326.62z"/>
	<path d="M178.31,66.949c-35.58,0-64.527,28.947-64.527,64.527c0,8.284,6.716,15,15,15s15-6.716,15-15
		c0-19.038,15.489-34.527,34.527-34.527s34.527,15.489,34.527,34.527s-15.489,34.527-34.527,34.527c-8.284,0-15,6.716-15,15v33.915
		c0,8.284,6.716,15,15,15s15-6.716,15-15v-20.675c28.371-6.779,49.527-32.35,49.527-62.768
		C242.837,95.896,213.89,66.949,178.31,66.949z"/>
	<circle cx="178.31" cy="265.899" r="20.999"/>
</g>
<g>
</g>
<g>
</g>
<g>
</g>
<g>
</g>
<g>
</g>
<g>
</g>
<g>
</g>
<g>
</g>
<g>
</g>
<g>
</g>
<g>
</g>
<g>
</g>
<g>
</g>
<g>
</g>
<g>
</g>
</svg>
