<svg width="54" height="54" viewBox="0 0 54 54" fill="none" xmlns="http://www.w3.org/2000/svg">
<path d="M26.9998 24.3844C30.8209 24.3844 33.9186 21.2867 33.9186 17.4656C33.9186 13.6445 30.8209 10.5469 26.9998 10.5469C23.1787 10.5469 20.0811 13.6445 20.0811 17.4656C20.0811 21.2867 23.1787 24.3844 26.9998 24.3844Z" fill="#4CC2F1"/>
<path d="M27 0C12.1078 0 0 12.1078 0 27C0 41.8922 12.1078 54 27 54C41.8922 54 54 41.8922 54 27C54 12.1078 41.8922 0 27 0ZM27 9.07031C31.6406 9.07031 35.3531 12.825 35.3531 17.4234C35.3531 22.0219 31.6406 25.8188 27 25.8188C22.3594 25.8188 18.6469 22.0641 18.6469 17.4656C18.6469 12.8672 22.3594 9.07031 27 9.07031ZM42.2297 42.1875H40.8797V32.9906C40.8797 30.7125 39.0234 28.8563 36.7453 28.8563H17.2547C14.9766 28.8563 13.1203 30.7125 13.1203 32.9906V42.1875H11.7703V32.6109C11.7703 29.8266 14.0484 27.5484 16.8328 27.5484H37.2094C39.9937 27.5484 42.2719 29.8266 42.2719 32.6109V42.1875H42.2297Z" fill="#4CC2F1"/>
</svg>
