<svg width="46" height="46" viewBox="0 0 46 46" fill="none" xmlns="http://www.w3.org/2000/svg">
<g clip-path="url(#clip0)">
<path fill-rule="evenodd" clip-rule="evenodd" d="M4.22266 2.33769V43.6623C4.22266 44.9478 5.27341 46 6.55719 46H39.4428C40.7266 46 41.7773 44.9454 41.7773 43.6623V10.5917C41.7773 10.2976 41.7773 10.0274 41.7749 9.78104L32.9263 0H6.55719C5.27341 0 4.22266 1.05215 4.22266 2.33769Z" fill="#FEFEFE"/>
<path fill-rule="evenodd" clip-rule="evenodd" d="M32.9238 7.44334C32.9214 8.72888 33.9718 9.78069 35.2584 9.78069H41.7748C41.7432 7.8315 41.5207 7.19382 39.9222 5.45695L36.8906 2.1566C35.3475 0.480103 35.2085 0 32.9263 0L32.9238 7.44334Z" fill="#90A4AE"/>
<path fill-rule="evenodd" clip-rule="evenodd" d="M14.4022 24.623H10.1051C9.87984 24.623 9.69629 24.8066 9.69629 25.0323V27.5352C9.69629 27.7609 9.87984 27.9445 10.1051 27.9445H14.4022C14.6275 27.9445 14.8107 27.7609 14.8107 27.5352V25.0323C14.8111 24.8066 14.6275 24.623 14.4022 24.623Z" fill="#8BC34A"/>
<path fill-rule="evenodd" clip-rule="evenodd" d="M14.4022 31.3027H10.1051C9.87984 31.3027 9.69629 31.4891 9.69629 31.7148V34.2149C9.69629 34.4406 9.87984 34.627 10.1051 34.627H14.4022C14.6275 34.627 14.8107 34.4406 14.8107 34.2149V31.7148C14.8111 31.4891 14.6275 31.3027 14.4022 31.3027Z" fill="#FFD54F"/>
<path fill-rule="evenodd" clip-rule="evenodd" d="M14.4022 37.9849H10.1051C9.87984 37.9849 9.69629 38.1684 9.69629 38.3941V40.8946C9.69629 41.1227 9.87984 41.3063 10.1051 41.3063H14.4022C14.6275 41.3063 14.8107 41.1227 14.8107 40.8946V38.3941C14.8111 38.1684 14.6275 37.9849 14.4022 37.9849Z" fill="#F55A8E"/>
<path fill-rule="evenodd" clip-rule="evenodd" d="M38.5202 10.5919V43.6625C38.5202 44.9428 37.4722 45.9949 36.1934 46.0002H39.4425C40.7263 46.0002 41.777 44.9456 41.777 43.6625V10.5919C41.777 10.2979 41.777 10.0276 41.7745 9.78125H38.5149C38.5202 10.0276 38.5202 10.2979 38.5202 10.5919Z" fill="#C4CCCF"/>
<path fill-rule="evenodd" clip-rule="evenodd" d="M22.4406 20.6952C26.7899 20.6952 30.3377 17.1425 30.3377 12.7875C30.3377 8.43221 26.7903 4.88232 22.4406 4.88232C18.0937 4.88232 14.5459 8.43221 14.5459 12.7875C14.5459 17.1428 18.0937 20.6952 22.4406 20.6952Z" fill="#FFD54F"/>
<path fill-rule="evenodd" clip-rule="evenodd" d="M23.0201 14.1623C22.9573 14.5532 22.7477 14.8259 22.3284 14.8259C22.1294 14.8259 21.9563 14.7526 21.8202 14.6055C21.6601 14.4353 21.6156 14.1991 21.6156 13.9706C21.6156 13.6874 21.6496 13.3909 21.7517 13.1234C21.8384 12.895 21.9563 12.6798 22.1108 12.491C22.2915 12.2731 22.4933 12.0632 22.6951 11.8667C22.8495 11.7144 23.0096 11.5596 23.151 11.3996C23.2426 11.2971 23.3159 11.1872 23.3763 11.0665C23.4367 10.9458 23.4626 10.817 23.4626 10.6833C23.4626 10.4208 23.3788 10.1902 23.1956 9.99857C23.0067 9.80449 22.7737 9.72307 22.5038 9.72307C22.2339 9.72307 21.9535 9.78062 21.7728 9.99857C21.5735 10.2372 21.3664 10.5808 21.2801 10.8749C21.2302 11.2788 21.0414 11.5779 20.6171 11.5779C20.3971 11.5779 20.2135 11.4887 20.0721 11.321C19.9387 11.1658 19.8545 10.9875 19.8545 10.7801C19.8545 10.379 19.9777 10.001 20.1718 9.65463C20.3918 9.25841 20.7087 8.94887 21.0912 8.71268C21.5212 8.45052 22.0006 8.34277 22.5035 8.34277C22.9646 8.34277 23.4153 8.43192 23.8241 8.65512C24.1989 8.85727 24.5 9.13768 24.7152 9.50513C24.9247 9.8645 25.0296 10.2555 25.0296 10.6724C25.0296 10.9742 24.977 11.276 24.8461 11.5491C24.7359 11.7825 24.5973 12 24.4242 12.1917C24.1491 12.4907 23.861 12.782 23.5753 13.0705C23.4809 13.1624 23.3893 13.2621 23.3107 13.3645C23.2584 13.4326 23.2057 13.506 23.1717 13.5874C23.1405 13.6506 23.1169 13.7187 23.0983 13.7843C23.0699 13.9103 23.0436 14.0391 23.0201 14.1623ZM22.3835 17.2345C22.1501 17.2345 21.9483 17.1454 21.7833 16.9853C21.5949 16.799 21.5268 16.5522 21.5268 16.2925C21.5268 16.0434 21.6026 15.8205 21.7728 15.6342C21.9353 15.4555 22.1399 15.3611 22.3835 15.3611C22.6217 15.3611 22.8264 15.4555 22.986 15.6342C23.151 15.8205 23.2243 16.0462 23.2243 16.2925C23.2243 16.5498 23.1562 16.7965 22.9702 16.9801C22.8078 17.1425 22.614 17.2345 22.3835 17.2345Z" fill="#37474F"/>
<path fill-rule="evenodd" clip-rule="evenodd" d="M21.4053 4.94795C25.2752 5.45683 28.265 8.77333 28.265 12.7875C28.265 16.8017 25.2752 20.1179 21.4053 20.6267C21.7432 20.6713 22.0893 20.6952 22.4402 20.6952C26.8029 20.6952 30.3373 17.1558 30.3373 12.7875C30.3373 8.42168 26.8029 4.88232 22.4402 4.88232C22.0893 4.88232 21.7432 4.90619 21.4053 4.94795Z" fill="#E6A235"/>
<path d="M36.9462 27.0643H18.537C18.1509 27.0643 17.8379 26.7512 17.8379 26.3648C17.8379 25.9784 18.1509 25.665 18.537 25.665H36.9462C37.3322 25.665 37.6453 25.9784 37.6453 26.3648C37.6453 26.7512 37.3322 27.0643 36.9462 27.0643Z" fill="#37474F"/>
<path d="M36.9462 33.6629H29.374C28.9876 33.6629 28.6746 33.3495 28.6746 32.9631C28.6746 32.5767 28.9876 32.2637 29.374 32.2637H36.9462C37.3322 32.2637 37.6453 32.5767 37.6453 32.9631C37.6453 33.3495 37.3322 33.6629 36.9462 33.6629ZM26.1723 33.6629H18.537C18.1509 33.6629 17.8379 33.3495 17.8379 32.9631C17.8379 32.5767 18.1509 32.2637 18.537 32.2637H26.1723C26.5583 32.2637 26.8714 32.5767 26.8714 32.9631C26.8714 33.3495 26.5583 33.6629 26.1723 33.6629Z" fill="#37474F"/>
<path d="M36.9462 40.345H18.537C18.1509 40.345 17.8379 40.032 17.8379 39.6456C17.8379 39.2592 18.1509 38.9458 18.537 38.9458H36.9462C37.3322 38.9458 37.6453 39.2592 37.6453 39.6456C37.6453 40.032 37.3322 40.345 36.9462 40.345Z" fill="#37474F"/>
</g>
<defs>
<clipPath id="clip0">
<rect width="46" height="46" fill="white"/>
</clipPath>
</defs>
</svg>
