<svg width="88" height="34" viewBox="0 0 88 34" fill="none" xmlns="http://www.w3.org/2000/svg">
<path d="M82.0594 0H59.9406C56.6602 0 54 2.66019 54 5.94056V28.0594C54 31.3398 56.6602 34 59.9406 34H71V21.1556L66.8759 21.1241V15.4889H71V13.6C71.2519 6.39074 76.887 6.07593 76.887 6.07593H82.0185L81.9556 11.7111H77.4852C76.4148 11.7741 76.3204 13.0019 76.3204 13.0019V15.4889H76.5093H82.0185V21.1556H76.4022V34H82.0594C85.3398 34 88 31.3398 88 28.0594V5.94056C88 2.66019 85.3398 0 82.0594 0Z" fill="#4CC2F1"/>
<path d="M28.0594 0H5.94056C2.66019 0 0 2.66019 0 5.94056V28.0594C0 31.3398 2.66019 34 5.94056 34H28.0594C31.3398 34 34 31.3398 34 28.0594V5.94056C34 2.66019 31.3398 0 28.0594 0ZM25.1537 18.8574C25.1537 18.8574 28.0815 21.4704 28.4278 22.5093C28.7741 23.5481 28.2704 23.5796 27.8296 23.7685C27.3889 23.9574 24.0833 23.863 24.0833 23.863C24.0833 23.863 23.1389 23.7685 22.4778 23.0759C21.8167 22.3833 20.463 20.5574 19.8648 20.7148C19.2667 20.8722 19.0463 21.5019 18.9204 22.9815C18.9204 22.9815 19.1093 23.7685 18.0074 23.8C16.9056 23.8315 14.1667 24.1463 11.4593 21.6907C8.75185 19.2352 5.50926 12.6241 5.54074 12.4037C5.57222 12.1833 4.81667 11.2389 6.01296 11.1759C7.20926 11.113 8.78333 11.1759 8.78333 11.1759C8.78333 11.1759 10.0426 10.8611 10.263 11.9C10.263 11.9 11.7111 15.363 13.2537 16.8426C14.7963 18.3222 14.45 13.4741 14.45 13.4741C14.45 13.4741 14.513 11.6167 13.0333 11.5222C13.0333 11.5222 13.0648 10.987 14.1037 10.6722C15.1426 10.3574 17.787 10.5463 18.2593 10.7667C18.7315 10.987 18.9833 10.987 18.9519 12.5926C18.9204 14.1981 18.7944 16.15 19.1093 16.7481C19.4241 17.3463 19.8963 16.9056 19.8963 16.9056C19.8963 16.9056 21.5019 15.5519 23.013 11.8056C23.013 11.8056 23.1704 11.1444 23.8315 11.2074C24.4926 11.2704 27.7981 11.1759 27.7981 11.1759C27.7981 11.1759 28.9315 11.05 28.4907 12.2148C28.05 13.3796 24.9963 17.4407 24.9963 17.4407C24.9963 17.4407 24.4611 18.1333 25.1537 18.8574Z" fill="#4CC2F1"/>
</svg>
