<svg width="360" height="60" viewBox="0 0 360 60" fill="none" xmlns="http://www.w3.org/2000/svg">
<rect width="360" height="60" rx="30" fill="#4CC2F1"/>
<path d="M93.2504 40L95.2987 34.233H103.532L105.58 40H108.165L100.688 19.6364H98.1424L90.6651 40H93.2504ZM96.0742 32.0455L99.3356 22.858H99.4947L102.756 32.0455H96.0742ZM111.019 40H118.218C121.32 40 123.189 38.25 123.189 35.9034C123.189 33.5071 121.37 32.2145 119.689 31.9659C121.409 31.608 122.632 30.6435 122.632 28.7841C122.632 26.348 120.544 24.7273 117.263 24.7273H111.019V40ZM113.246 37.8523V33.1591H118.218C119.828 33.1591 120.803 34.1236 120.803 35.7045C120.803 37.0369 119.828 37.8523 118.218 37.8523H113.246ZM113.246 31.1307V26.875H117.263C119.142 26.875 120.286 27.6605 120.286 28.9432C120.286 30.3054 119.142 31.1307 117.263 31.1307H113.246ZM125.866 26.9148H130.918V40H133.264V26.9148H138.276V24.7273H125.866V26.9148ZM147.11 40.3182C151.246 40.3182 154.031 37.1761 154.031 32.4432C154.031 27.6705 151.246 24.5284 147.11 24.5284C142.974 24.5284 140.19 27.6705 140.19 32.4432C140.19 37.1761 142.974 40.3182 147.11 40.3182ZM147.11 38.2102C143.968 38.2102 142.536 35.5057 142.536 32.4432C142.536 29.3807 143.968 26.6364 147.11 26.6364C150.252 26.6364 151.684 29.3807 151.684 32.4432C151.684 35.5057 150.252 38.2102 147.11 38.2102ZM157.613 45.7273H159.959V37.6534H160.158C160.675 38.4886 161.669 40.3182 164.613 40.3182C168.431 40.3182 171.096 37.2557 171.096 32.4034C171.096 27.5909 168.431 24.5284 164.573 24.5284C161.59 24.5284 160.675 26.358 160.158 27.1534H159.88V24.7273H157.613V45.7273ZM159.919 32.3636C159.919 28.9432 161.431 26.6364 164.294 26.6364C167.277 26.6364 168.749 29.142 168.749 32.3636C168.749 35.625 167.238 38.2102 164.294 38.2102C161.471 38.2102 159.919 35.8239 159.919 32.3636ZM177.022 36.5398V24.7273H174.675V40H177.419L184.738 28.1875V40H187.084V24.7273H184.38L177.022 36.5398ZM190.428 36.1023C190.507 38.608 192.903 40.3182 196.155 40.3182C199.496 40.3182 201.922 38.5284 201.922 35.7443C201.922 33.8352 200.778 32.2841 199.058 32.1648V32.0057C200.51 31.5582 201.604 30.5043 201.604 28.7841C201.604 26.3679 199.536 24.5284 196.314 24.5284C193.132 24.5284 190.865 26.2784 190.786 28.7443H193.251C193.321 27.4815 194.643 26.5966 196.433 26.5966C198.213 26.5966 199.217 27.5014 199.217 28.8636C199.217 30.1364 198.342 31.0909 196.473 31.0909H193.848V33.1989H196.473C198.342 33.1989 199.536 34.223 199.536 35.7443C199.536 37.4844 197.994 38.2102 196.115 38.2102C194.276 38.2102 193.043 37.4844 192.933 36.1023H190.428ZM209.712 40.358C212.377 40.358 213.769 38.9261 214.246 37.9318H214.366V40H216.712V29.9375C216.712 25.0852 213.013 24.5284 211.065 24.5284C208.758 24.5284 206.133 25.3239 204.94 28.108L207.167 28.9034C207.684 27.7898 208.907 26.5966 211.144 26.5966C213.302 26.5966 214.366 27.7401 214.366 29.6989V29.7784C214.366 30.9119 213.212 30.8125 210.428 31.1705C207.594 31.5384 204.502 32.1648 204.502 35.6648C204.502 38.6477 206.809 40.358 209.712 40.358ZM210.07 38.25C208.201 38.25 206.849 37.4148 206.849 35.7841C206.849 33.9943 208.479 33.4375 210.309 33.1989C211.303 33.0795 213.968 32.8011 214.366 32.3239V34.4716C214.366 36.3807 212.854 38.25 210.07 38.25ZM233.007 24.7273H230.66V37.8125H223.342V24.7273H220.995V40H232.808V44.9318H235.154V37.8125H233.007V24.7273ZM241.115 36.5398V24.7273H238.769V40H241.513L248.831 28.1875V40H251.178V24.7273H248.473L241.115 36.5398ZM264.663 40H266.891V24.7273H260.607C257.315 24.7273 255.317 26.4474 255.317 29.2614C255.317 31.3594 256.371 32.8509 258.21 33.4773L254.482 40H257.027L260.567 33.7955H264.663V40ZM264.663 31.608H260.328C258.668 31.608 257.663 30.723 257.663 29.2614C257.663 27.7798 258.777 26.875 260.607 26.875H264.663V31.608Z" fill="#F8FCFD"/>
</svg>
