<svg width="21" height="21" viewBox="0 0 21 21" fill="none" xmlns="http://www.w3.org/2000/svg">
<g clip-path="url(#clip0)">
<path d="M13.1249 11.3758C12.641 11.3758 12.2499 11.7679 12.2499 12.2507V15.7508C12.2499 16.2329 11.8579 16.6258 11.3748 16.6258H8.74985V3.50089C8.74985 2.75364 8.27385 2.08602 7.55817 1.83753L7.2991 1.75085H11.3748C11.8579 1.75085 12.2499 2.1437 12.2499 2.62595V5.25092C12.2499 5.73381 12.641 6.12586 13.1249 6.12586C13.6087 6.12586 13.9998 5.73381 13.9998 5.25092V2.62595C13.9998 1.17872 12.8221 0.000976562 11.3748 0.000976562H1.75003C0.784896 0.000976562 0 0.785713 0 1.75085V17.5007C0 18.2479 0.476001 18.9156 1.19168 19.1641L6.45749 20.9194C6.63597 20.9745 6.81349 21.0008 6.99998 21.0008C7.96512 21.0008 8.74985 20.2159 8.74985 19.2507V18.3758H11.3748C12.8221 18.3758 13.9998 17.198 13.9998 15.7508V12.2507C13.9998 11.7679 13.6087 11.3758 13.1249 11.3758Z" fill="#F36459"/>
<path d="M20.7436 8.13152L17.2435 4.63161C16.9934 4.38135 16.6171 4.30605 16.2899 4.44159C15.9636 4.5773 15.75 4.89661 15.75 5.2502V7.87518H12.2501C11.767 7.87518 11.375 8.26706 11.375 8.75011C11.375 9.23316 11.767 9.62505 12.2501 9.62505H15.75V12.25C15.75 12.6036 15.9636 12.9229 16.2899 13.0586C16.6171 13.1942 16.9934 13.1189 17.2435 12.8688L20.7436 9.36871C21.0857 9.02665 21.0857 8.47358 20.7436 8.13152Z" fill="#F36459"/>
</g>
<defs>
<clipPath id="clip0">
<rect width="21" height="21" fill="white"/>
</clipPath>
</defs>
</svg>
