<svg width="39" height="46" viewBox="0 0 39 46" fill="none" xmlns="http://www.w3.org/2000/svg">
<path d="M38.739 18.4181C38.5111 16.6323 35.9029 16.0268 34.3214 15.8165C35.5456 10.9794 34.3358 6.57752 32.2912 4.99297C31.8442 4.6485 31.2967 4.46357 30.7277 4.46357C29.7907 4.46357 28.211 5.46797 27.3692 6.11883C24.9387 2.12663 21.3252 0 18.8624 0C18.6829 0 18.5034 0.0108779 18.3239 0.0344468C16.5199 0.273761 15.8036 2.87902 15.608 4.43457C14.3909 4.13905 13.1434 3.98857 11.8832 3.97951C8.81368 3.97951 6.16597 4.93132 4.97585 6.49412C3.87189 7.94088 5.06381 10.3431 6.03852 11.6122C1.89554 14.1667 -0.296223 18.0936 0.0322718 20.6282C0.28717 22.6134 2.85769 23.1283 4.42657 23.2788C3.24363 28.0977 4.45708 32.4887 6.50883 34.0298C6.95759 34.3996 7.53022 34.6081 8.12438 34.619C9.11704 34.619 10.7847 33.7778 11.6301 33.0634C14.0427 36.9034 17.5466 38.9611 19.9287 38.9611C20.1064 38.9611 20.2859 38.9502 20.4636 38.9266C22.2299 38.7018 23.0162 36.1093 23.2172 34.5428C24.4396 34.8329 25.6926 34.9816 26.9581 34.9816C29.6417 34.9816 32.7184 34.0171 33.9139 32.467C34.9605 31.1018 33.4885 29.2163 32.4887 27.9363L32.4653 27.9055L32.4563 27.8946L32.3145 27.7133C36.7447 25.1661 39.0873 21.0361 38.739 18.4181ZM6.69731 23.1011L6.67038 23.0811C6.67397 23.0684 6.67757 23.0558 6.68116 23.0431C6.68654 23.063 6.69193 23.0811 6.69731 23.1011Z" fill="#358A27"/>
<path d="M10.6265 32.0693L8.83697 32.1568L5.35733 42.1972C5.24548 42.5219 5.50646 42.8466 5.84199 42.8091L10.7135 42.2971C10.8502 42.2846 10.9869 42.3346 11.0863 42.422L14.5908 45.8687C14.8269 46.106 15.237 46.0061 15.3489 45.6939L18.8534 35.5785L17.8219 34.567L10.6265 32.0693Z" fill="#98DB7C"/>
<path d="M15.56 33.793L12.6893 32.7939L9.28418 42.4597L10.7257 42.3099C10.8624 42.2974 10.9991 42.3473 11.0986 42.4348L12.1549 43.4713L15.56 33.793Z" fill="#63994C"/>
<path d="M17.993 38.0758L18.7013 36.0277L8.68492 32.606L7.97656 34.6415C10.8224 36.6771 14.2648 37.9259 17.993 38.0758Z" fill="black" fill-opacity="0.3"/>
<path d="M28.4847 32.0693L30.2742 32.1568L33.7539 42.1972C33.8657 42.5219 33.6047 42.8466 33.2692 42.8091L28.3977 42.2971C28.261 42.2846 28.1243 42.3346 28.0249 42.422L24.5204 45.8687C24.2843 46.106 23.8742 46.0061 23.7623 45.6939L20.2578 35.5785L21.2893 34.567L28.4847 32.0693Z" fill="#98DB7C"/>
<path d="M23.5635 33.793L26.4342 32.7939L29.8393 42.4597L28.3977 42.3099C28.261 42.2974 28.1243 42.3473 28.0249 42.4348L26.9686 43.4713L23.5635 33.793Z" fill="#63994C"/>
<path d="M21.0661 37.9257L20.3018 35.7045L30.3182 32.2827L31.0825 34.4915C28.2366 36.5271 24.7943 37.7759 21.0661 37.9257Z" fill="black" fill-opacity="0.3"/>
<path d="M19.4005 35.5409C2.95923 35.5409 2.97165 19.5062 2.98408 19.2315C3.41904 10.5023 10.602 3.54639 19.4005 3.54639C28.1991 3.54639 35.3821 10.5023 35.8046 19.2315C35.817 19.5062 35.8294 35.5409 19.4005 35.5409Z" fill="#7AFFBF"/>
<path d="M19.4003 34.9165C10.6018 34.9165 3.41879 27.9606 2.98384 19.2314C2.97141 19.5062 2.95898 19.7809 2.95898 20.0681C2.95898 29.1845 10.3159 36.5774 19.3879 36.5774C28.4598 36.5774 35.8168 29.1845 35.8168 20.0681C35.8168 19.7934 35.8043 19.5062 35.7919 19.2314C35.3818 27.9606 28.1988 34.9165 19.4003 34.9165Z" fill="#51AF82"/>
<path d="M19.3997 31.9947C6.47531 31.9947 6.46289 19.2319 6.47531 18.9572C6.89784 12.1636 12.5274 6.78125 19.3997 6.78125C26.272 6.78125 31.8891 12.1636 32.3241 18.9572C32.3365 19.2319 32.3117 31.9947 19.3997 31.9947Z" fill="#3EFF68"/>
<path d="M19.4004 31.4074C12.5281 31.4074 6.91098 26.025 6.47603 19.2314C6.4636 19.5062 6.45117 19.7809 6.45117 20.0681C6.45117 27.2488 12.2423 33.0808 19.4004 33.0808C26.5461 33.0808 32.3497 27.2613 32.3497 20.0681C32.3497 19.7934 32.3372 19.5062 32.3248 19.2314C31.8899 26.025 26.2727 31.4074 19.4004 31.4074Z" fill="#31C752"/>
</svg>
