<svg width="226" height="268" viewBox="0 0 226 268" fill="none" xmlns="http://www.w3.org/2000/svg">
<path d="M225.432 107.345C224.106 96.954 208.929 93.4305 199.727 92.2068C206.85 64.0608 199.81 38.4468 187.913 29.2265C185.313 27.2221 182.127 26.1461 178.816 26.1461C173.363 26.1461 164.172 31.9905 159.273 35.7778C145.13 12.5479 124.104 0.17334 109.774 0.17334C108.729 0.17334 107.685 0.236637 106.64 0.373779C96.1427 1.76631 91.9751 16.9259 90.8366 25.9773C83.7548 24.2577 76.4955 23.3821 69.163 23.3294C51.3019 23.3294 35.8953 28.8679 28.9702 37.9615C22.5465 46.38 29.482 60.358 35.1537 67.7426C11.0464 82.6068 -1.70707 105.457 0.204385 120.205C1.68759 131.757 16.645 134.753 25.774 135.628C18.8907 163.669 25.9516 189.22 37.8903 198.187C40.5016 200.339 43.8336 201.552 47.2909 201.615C53.0671 201.615 62.7706 196.72 67.6902 192.564C81.7285 214.908 102.117 226.881 115.978 226.881C117.012 226.881 118.057 226.818 119.091 226.681C129.369 225.373 133.944 210.287 135.113 201.172C142.227 202.86 149.517 203.725 156.881 203.725C172.496 203.725 190.399 198.113 197.356 189.093C203.445 181.149 194.88 170.178 189.062 162.73L188.927 162.551L188.874 162.487L188.049 161.432C213.828 146.61 227.459 122.579 225.432 107.345ZM38.9871 134.594L38.8304 134.478C38.8513 134.405 38.8722 134.331 38.8931 134.257C38.9244 134.373 38.9557 134.478 38.9871 134.594Z" fill="#293C48"/>
<path d="M61.8426 186.78L51.4296 187.289L31.1822 245.713C30.5314 247.602 32.0499 249.491 34.0024 249.273L62.3488 246.294C63.1442 246.221 63.9397 246.512 64.5182 247.021L84.9102 267.076C86.2842 268.457 88.6705 267.876 89.3213 266.059L109.713 207.199L103.711 201.314L61.8426 186.78Z" fill="#955AA5"/>
<path d="M90.5499 196.808L73.8458 190.995L54.0322 247.238L62.4205 246.366C63.2159 246.294 64.0113 246.584 64.5898 247.093L70.7364 253.124L90.5499 196.808Z" fill="#5A6AA3"/>
<path d="M104.795 221.732L108.917 209.815L50.6335 189.904L46.5117 201.749C63.0712 213.593 83.1017 220.86 104.795 221.732Z" fill="black" fill-opacity="0.3"/>
<path d="M165.755 186.78L176.168 187.289L196.415 245.713C197.066 247.602 195.547 249.491 193.595 249.273L165.248 246.294C164.453 246.221 163.657 246.512 163.079 247.021L142.687 267.076C141.313 268.457 138.927 267.876 138.276 266.059L117.884 207.199L123.886 201.314L165.755 186.78Z" fill="#955AA5"/>
<path d="M137.12 196.808L153.824 190.995L173.638 247.238L165.25 246.366C164.454 246.294 163.659 246.584 163.08 247.093L156.934 253.124L137.12 196.808Z" fill="#5A6AA3"/>
<path d="M122.586 220.86L118.464 208.943L176.748 189.032L180.869 200.877C164.31 212.721 144.279 219.988 122.586 220.86Z" fill="black" fill-opacity="0.3"/>
<path d="M112.896 206.981C17.2265 206.981 17.2988 113.678 17.3712 112.079C19.9021 61.2856 61.6986 20.8105 112.896 20.8105C164.093 20.8105 205.889 61.2856 208.348 112.079C208.42 113.678 208.493 206.981 112.896 206.981Z" fill="#257284"/>
<path d="M112.895 203.348C61.6977 203.348 19.9011 162.873 17.3702 112.079C17.2979 113.678 17.2256 115.276 17.2256 116.948C17.2256 169.994 60.0345 213.012 112.822 213.012C165.61 213.012 208.419 169.994 208.419 116.948C208.419 115.349 208.347 113.678 208.275 112.079C205.888 162.873 164.092 203.348 112.895 203.348Z" fill="#498AAA"/>
<path d="M112.895 186.344C37.6906 186.344 37.6183 112.079 37.6906 110.481C40.1492 70.9505 72.9067 39.6313 112.895 39.6313C152.884 39.6313 185.569 70.9505 188.1 110.481C188.172 112.079 188.028 186.344 112.895 186.344Z" fill="#2DC7E0"/>
<path d="M112.896 182.929C72.9076 182.929 40.2224 151.609 37.6915 112.079C37.6192 113.678 37.5469 115.276 37.5469 116.948C37.5469 158.731 71.2444 192.666 112.896 192.666C154.476 192.666 188.246 158.803 188.246 116.948C188.246 115.349 188.173 113.678 188.101 112.079C185.57 151.609 152.885 182.929 112.896 182.929Z" fill="#539AB7"/>
</svg>
