<svg width="21" height="21" fill="none" xmlns="http://www.w3.org/2000/svg"><g clip-path="url(#clip0)" fill="#F36459"><path d="M13.125 11.376a.875.875 0 00-.875.875v3.5a.876.876 0 01-.875.875H8.75V3.5c0-.747-.476-1.415-1.192-1.663L7.3 1.75h4.076c.483 0 .875.393.875.875V5.25a.875.875 0 101.75 0V2.626A2.628 2.628 0 0011.375.001H1.75C.785.001 0 .786 0 1.751V17.5c0 .747.476 1.415 1.192 1.663l5.265 1.755c.179.055.356.082.543.082.965 0 1.75-.785 1.75-1.75v-.875h2.625A2.628 2.628 0 0014 15.75v-3.5a.875.875 0 00-.875-.875z"/><path d="M20.744 8.132l-3.5-3.5a.875.875 0 00-1.494.618v2.625h-3.5a.875.875 0 000 1.75h3.5v2.625a.877.877 0 001.494.619l3.5-3.5a.874.874 0 000-1.237z"/></g><defs><clipPath id="clip0"><path fill="#fff" d="M0 0h21v21H0z"/></clipPath></defs></svg>