<svg width="80" height="45" fill="none" xmlns="http://www.w3.org/2000/svg"><path d="M41.79 8.97c.42.95.85 1.89 1.27 2.84.43.97.86 1.93 1.28 2.9.15.35.35.64.63.9 1.8 1.72 3.59 3.45 5.39 5.17.35.34.35.34.58-.11 2.19-4.23 1.43-9.26-1.92-12.68-.24-.24-.27-.38-.05-.65.77-.92 1.53-1.85 2.28-2.8.2-.25.3-.28.55-.05 2.29 2.22 3.84 4.86 4.45 8 1.04 5.39-.37 10.1-4.21 14.01-2.61 2.66-5.84 4.11-9.56 4.46-7.61.72-14.71-4.21-16.49-11.59-1.38-5.72.13-10.71 4.3-14.88.23-.23.34-.22.54.04.76.97 1.54 1.92 2.33 2.86.17.21.19.32-.02.52-1.79 1.79-2.86 3.96-3.15 6.46-.27 2.29.17 4.47 1.27 6.5.11.21.19.18.34.04 1.92-1.86 3.85-3.72 5.78-5.57.14-.13.21-.3.29-.47.83-1.87 1.66-3.73 2.49-5.6.04-.09.08-.17.14-.28.13.1.08-.02.08.32 0 2.98 0 5.95.01 8.93 0 .25-.09.42-.27.59-1.85 1.77-3.7 3.55-5.54 5.32-.07.07-.14.15-.23.24 1.19.9 2.49 1.53 3.92 1.88 3.21.77 6.21.27 8.99-1.53.52-.33.51-.34.08-.75-1.79-1.72-3.57-3.43-5.35-5.15-.14-.13-.29-.25-.29-.49.01-3.12.01-6.24.01-9.36.03-.01.06-.01.08-.02z" fill="#fff"/><path d="M40.981 4.65c-2.36.02-4.54.71-6.49 2.12-.21.15-.31.14-.47-.07-.78-.99-1.57-1.97-2.38-2.93-.2-.24-.12-.33.08-.49 2.26-1.66 4.78-2.67 7.57-2.97 4.05-.43 7.74.56 11.05 2.96.28.2.29.32.07.58-.78.93-1.55 1.88-2.3 2.83-.18.23-.3.24-.54.07-1.96-1.4-4.14-2.1-6.59-2.1zM41 39.02c-.47 1.05-.91 2.01-1.33 2.98-.12.28-.28.34-.57.38-.82.12-1.22-.19-1.53-.97-.72-1.82-1.55-3.59-2.34-5.38-.04-.09-.07-.18-.13-.33.75 0 1.45.01 2.16 0 .22 0 .25.16.31.29.36.84.7 1.69 1.06 2.53.06.14.08.3.25.44.41-.92.83-1.83 1.2-2.75.16-.39.37-.49.78-.53.77-.08 1.18.17 1.43.92.27.82.68 1.59 1.06 2.46.45-1.05.87-2.01 1.26-2.99.11-.28.25-.4.56-.38.44.03.89.02 1.33 0 .35-.02.46.05.29.41-.82 1.84-1.65 3.68-2.41 5.54-.23.56-.51.74-1.12.75-.64.01-.93-.2-1.14-.77-.3-.85-.71-1.67-1.12-2.6zM1.72 42.36c.61-.61 1.14-1.16 1.68-1.7.1-.11.24-.07.37-.07.82 0 1.63-.02 2.45.01.31.01.38-.09.38-.39-.02-.79-.03-1.57 0-2.36.01-.34-.11-.4-.41-.39-1.14.02-2.29.02-3.43 0-.29 0-.39.06-.39.37.02.86 0 1.72.01 2.58 0 .23-.05.4-.23.57-.33.31-.66.63-.97.98-.18.2-.32.17-.51.03-.38-.29-.58-.66-.58-1.14 0-1.22-.01-2.43 0-3.65.01-.68.34-1.12.99-1.36.29-.1.58-.14.89-.14 1.66 0 3.32.01 4.98 0 .54 0 .9.16 1.24.64.51.71.76 1.43.68 2.3-.06.7 0 1.4-.01 2.1-.01.85-.51 1.42-1.35 1.56-.27.04-.54.06-.81.07-1.49.01-2.98 0-4.46 0-.16-.01-.29-.01-.52-.01zm31.31-2.49c.97.85 1.86 1.63 2.85 2.49h-2.43c-.95 0-1.35-.675-2.95-2.01-.5-.35-.61-.69-.56-1.23.05-.61.01-.62.62-.62.51 0 1.03-.01 1.54.01.29.01.4-.06.4-.38-.01-.73.01-.73-.73-.73-.79 0-1.57.02-2.36-.01-.37-.01-.51.07-.5.48.03 1.34-.01 2.69.02 4.03.01.4-.12.48-.48.46-.47-.03-.94-.02-1.42 0-.26.01-.37-.04-.37-.34.01-2 .01-4.01 0-6.01 0-.24.06-.32.31-.32 2.03.01 4.06-.01 6.09.01 1.1.01 1.6.55 1.6 1.66v.94c0 .89-.34 1.3-1.21 1.49-.08.03-.19.04-.42.08zm38.34-.84c0-.99.01-1.98 0-2.96 0-.26.04-.39.35-.38.54.02 1.09.02 1.63 0 .27-.01.34.1.33.35-.02.56.01 1.12-.01 1.67-.01.27.08.34.34.33 1.13-.01 2.26-.01 3.39 0 .28 0 .34-.09.33-.35-.02-.56 0-1.12-.01-1.67 0-.23.04-.34.3-.33.56.02 1.12.01 1.67 0 .22 0 .3.06.3.29-.01 2.03-.01 4.06 0 6.1 0 .23-.09.29-.31.28-.54-.01-1.09-.02-1.63 0-.26.01-.35-.07-.34-.34.02-.64 0-1.29.01-1.93.01-.24-.06-.32-.31-.32-1.14.01-2.29.02-3.43 0-.29 0-.32.11-.32.35.01.63-.01 1.26.01 1.89.01.25-.05.36-.33.35-.54-.02-1.09-.02-1.63 0-.3.01-.35-.11-.35-.37.02-.98.01-1.97.01-2.96zm-4.99-3.33h2.23c.45 0 .88.1 1.26.36.52.36.59.9.57 1.49-.02.69-.01.69-.71.69-.39 0-.77-.02-1.16.01-.32.02-.46-.08-.4-.4.05-.29-.05-.39-.36-.39-1 .02-2 .02-3.01 0-.31-.01-.38.1-.38.39.02.79.02 1.57 0 2.36-.01.29.07.4.38.39 1-.02 2-.02 3.01 0 .32.01.41-.11.36-.39-.07-.41.07-.55.5-.51.48.04.97.02 1.46 0 .25-.01.33.08.31.32-.02.21 0 .43 0 .64 0 .92-.49 1.49-1.41 1.64-.73.12-1.46.06-2.18.05-1.07-.01-2.15.09-3.22-.05-.98-.13-1.45-.7-1.45-1.68 0-.77.01-1.55 0-2.32 0-.25.05-.47.19-.68.35-.52.71-1.04 1.03-1.58.16-.27.36-.36.67-.35.76.02 1.53.01 2.31.01zm-44.23 6.66c-1.04 0-2.09-.01-3.13.01-.29 0-.4-.06-.39-.37.02-1.45.02-2.89 0-4.34 0-.29.18-.47.28-.7.49-1.08 1.29-1.4 2.46-1.29 1.29.12 2.6.04 3.9.02.3 0 .45.05.42.39-.03.34-.03.69 0 1.03.02.3-.1.36-.37.35-1.33-.01-2.66 0-3.99-.01-.31 0-.41.06-.41.4 0 .33.11.4.42.4.83-.02 1.66 0 2.49-.01.24 0 .33.06.31.31-.02.3-.02.6 0 .9.02.28-.09.33-.35.33-.84-.01-1.69.01-2.53-.01-.37-.01-.33.19-.33.43-.01.26 0 .42.35.41 1.34-.02 2.69 0 4.04-.02.31 0 .4.09.38.39-.02.34-.03.69 0 1.03.03.32-.11.37-.39.37-1.07-.03-2.11-.02-3.16-.02zm23.041 0c.36-.54.67-1.01.99-1.48 1.08-1.61 2.17-3.22 3.24-4.84.16-.24.33-.31.62-.35 1.01-.17 1.59.26 2.1 1.13 1.06 1.78 2.24 3.48 3.37 5.22.06.09.17.16.13.33h-2.3c-.21 0-.26-.16-.34-.28-.77-1.19-1.53-2.38-2.29-3.57-.08-.13-.17-.26-.28-.43-.56.86-1.1 1.7-1.65 2.54-.32.49-.64.98-.95 1.48-.12.19-.25.27-.48.27-.68-.03-1.37-.02-2.16-.02zM13.73 39.74c.8-1.27 1.56-2.48 2.3-3.69.16-.26.34-.36.65-.35.66.03 1.31.01 1.96.01.1.15-.03.23-.08.31-1.3 2-2.62 3.99-3.92 5.99-.18.27-.37.34-.69.38-.81.11-1.27-.2-1.68-.91-1.07-1.84-2.25-3.61-3.39-5.41-.06-.09-.18-.19-.13-.3.05-.13.2-.06.31-.06.61-.01 1.23.01 1.84-.01.25-.01.38.08.51.29.76 1.23 1.52 2.45 2.32 3.75zm48.821-4.04c-.39.59-.74 1.09-1.06 1.61-.1.15-.22.15-.37.15-.51 0-1.03.03-1.54-.01-.42-.03-.49.13-.48.5.02 1.33 0 2.66.02 3.99.01.34-.1.44-.43.42-.47-.03-.94-.03-1.41 0-.33.02-.44-.06-.43-.42.02-1.37 0-2.75.02-4.12 0-.3-.08-.39-.38-.38-.73.02-1.46 0-2.19.01-.27.01-.35-.08-.34-.34.02-.34.03-.69 0-1.03-.03-.33.1-.41.41-.4 2.2.01 4.4.01 6.61.01.48.01.98.01 1.57.01zM52.23 42.38c-.61.87-1.18 1.68-1.78 2.52-.6-.85-1.17-1.66-1.77-2.52h3.55zM15.61 35.6h-3.55c.6-.86 1.17-1.67 1.77-2.52.59.84 1.16 1.64 1.78 2.52z" fill="#fff"/></svg>