<svg width="166" height="166" viewBox="0 0 166 166" fill="none" xmlns="http://www.w3.org/2000/svg">
<path d="M113.06 9.97885L98.0303 6.67822L103.04 22.695C105.386 21.3343 108.03 20.4328 110.849 20.1209C112.111 19.9813 113.06 18.9051 113.06 17.6352V9.97885Z" fill="#E0AC5E"/>
<path d="M77.9902 40.0391V46.3905H93.0204V40.0391C93.0204 32.6379 97.0565 26.1656 103.041 22.6949V9.18848C89.2979 11.4053 77.9902 26.5961 77.9902 40.0391Z" fill="#F5C476"/>
<path d="M110.37 0.0477395C107.857 0.215075 105.407 0.615212 103.041 1.22644L93.0205 11.6881H103.041C106.174 10.5822 109.546 9.97868 113.061 9.97868V2.54709C113.061 1.0905 111.823 -0.0491217 110.37 0.0477395Z" fill="#F5C476"/>
<path d="M72.9795 40.0388V46.3903H82.9996V40.0388C82.9996 26.9382 91.3591 15.8105 103.04 11.6879V1.22656C85.7722 5.68719 72.9795 21.3971 72.9795 40.0388Z" fill="#FFD98C"/>
<path d="M42.9195 40.0391C21.9828 40.0391 5.01006 57.0118 5.01006 77.9485C2.24317 77.9485 0 80.1917 0 82.9586C0 85.7255 2.24317 87.9686 5.01006 87.9686V118.029C2.24317 118.029 0 120.272 0 123.039C0 125.806 2.24317 128.049 5.01006 128.049C5.01006 148.986 21.9828 165.959 42.9195 165.959C46.3885 165.959 49.7476 165.49 52.9396 164.617V41.3801C49.7476 40.5077 46.3885 40.0391 42.9195 40.0391Z" fill="#FF802B"/>
<path d="M62.9595 40.0391C42.0228 40.0391 25.0501 57.0118 25.0501 77.9485C22.2832 77.9485 20.04 80.1917 20.04 82.9586C20.04 85.7255 22.2832 87.9686 25.0501 87.9686V97.9887C22.2832 97.9887 20.04 100.232 20.04 102.999C20.04 105.766 22.2832 108.009 25.0501 108.009V128.049C25.0501 148.986 42.0228 165.959 62.9595 165.959C66.4285 165.959 69.7876 165.49 72.9797 164.617V41.3801C69.7876 40.5077 66.4285 40.0391 62.9595 40.0391Z" fill="#FC6723"/>
<path d="M160.989 87.9685V97.9886C163.756 97.9886 165.999 100.232 165.999 102.999C165.999 105.766 163.756 108.009 160.989 108.009V128.049C160.989 148.986 144.016 165.958 123.08 165.958C119.611 165.958 116.252 165.49 113.06 164.617V41.3799C116.252 40.5072 119.611 40.0386 123.08 40.0386C144.016 40.0386 160.989 57.0113 160.989 77.948C163.756 77.948 165.999 80.1912 165.999 82.9581C165.999 85.7253 163.756 87.9685 160.989 87.9685Z" fill="#D84716"/>
<path d="M145.96 102.999C145.96 100.232 143.717 97.9888 140.95 97.9888V87.9686C143.717 87.9686 145.96 85.7255 145.96 82.9586C145.96 80.1917 143.717 77.9485 140.95 77.9485C140.95 57.0118 123.977 40.0391 103.041 40.0391C99.5717 40.0391 96.2126 40.5077 93.0205 41.3804V164.618C96.2126 165.49 99.5717 165.959 103.041 165.959C123.977 165.959 140.95 148.986 140.95 128.049C143.717 128.049 145.96 125.806 145.96 123.039C145.96 120.273 143.717 118.029 140.95 118.029V108.009C143.717 108.009 145.96 105.766 145.96 102.999Z" fill="#F74F16"/>
<path d="M120.909 118.029V77.9485C120.909 57.0118 103.937 40.0391 83 40.0391V165.959C103.937 165.959 120.909 148.986 120.909 128.049C123.676 128.049 125.92 125.806 125.92 123.039C125.92 120.272 123.676 118.029 120.909 118.029Z" fill="#FC6723"/>
<path d="M110.889 77.9485V82.9586L105.879 87.9686L110.889 92.9787V128.049C110.889 148.986 98.4025 165.959 82.9996 165.959C62.0629 165.959 45.0901 148.986 45.0901 128.049C42.3232 128.049 40.0801 125.806 40.0801 123.039C40.0801 120.272 42.3232 118.029 45.0901 118.029V108.009C42.3232 108.009 40.0801 105.766 40.0801 102.999C40.0801 100.232 42.3232 97.9887 45.0901 97.9887V77.9485C45.0901 57.0118 62.0629 40.0391 82.9996 40.0391C98.4025 40.0391 110.889 57.0115 110.889 77.9485Z" fill="#FF802B"/>
<path d="M83.0001 158.109C84.3836 158.109 85.5052 156.988 85.5052 155.604C85.5052 154.221 84.3836 153.099 83.0001 153.099C81.6167 153.099 80.4951 154.221 80.4951 155.604C80.4951 156.988 81.6167 158.109 83.0001 158.109Z" fill="#FC6723"/>
<path d="M95.8585 70.4334C97.242 70.4334 98.3636 69.3119 98.3636 67.9284C98.3636 66.5449 97.242 65.4233 95.8585 65.4233C94.4751 65.4233 93.3535 66.5449 93.3535 67.9284C93.3535 69.3119 94.4751 70.4334 95.8585 70.4334Z" fill="#FC6723"/>
<path d="M72.9798 148.089C75.7468 148.089 77.9898 145.846 77.9898 143.079C77.9898 140.312 75.7468 138.069 72.9798 138.069C70.2128 138.069 67.9697 140.312 67.9697 143.079C67.9697 145.846 70.2128 148.089 72.9798 148.089Z" fill="#D84716"/>
<path d="M90.8491 108.009L83 125.878C92.8688 125.878 100.869 117.878 100.869 108.009H90.8491Z" fill="#FFD98C"/>
<path d="M90.8492 108.009H65.1309C65.1309 117.878 73.1313 125.878 83.0001 125.878C87.3351 125.878 90.8492 117.878 90.8492 108.009Z" fill="#FFECB5"/>
<path d="M150.97 95.4837C152.353 95.4837 153.475 94.3621 153.475 92.9787C153.475 91.5952 152.353 90.4736 150.97 90.4736C149.586 90.4736 148.465 91.5952 148.465 92.9787C148.465 94.3621 149.586 95.4837 150.97 95.4837Z" fill="#D84716"/>
<path d="M15.0304 125.544C16.4139 125.544 17.5354 124.423 17.5354 123.039C17.5354 121.656 16.4139 120.534 15.0304 120.534C13.6469 120.534 12.5254 121.656 12.5254 123.039C12.5254 124.423 13.6469 125.544 15.0304 125.544Z" fill="#FC6723"/>
<path d="M55.1104 82.9583V92.9784C55.1104 95.7453 57.3535 97.9885 60.1204 97.9885C62.8873 97.9885 65.1305 95.7453 65.1305 92.9784V82.9583C65.1305 80.1914 62.8873 77.9482 60.1204 77.9482C57.3535 77.9482 55.1104 80.1911 55.1104 82.9583Z" fill="#FFECB5"/>
<path d="M100.869 82.9583V92.9784C100.869 95.7453 103.112 97.9885 105.879 97.9885C108.646 97.9885 110.889 95.7453 110.889 92.9784V82.9583C110.889 80.1914 108.646 77.9482 105.879 77.9482C103.112 77.9482 100.869 80.1911 100.869 82.9583Z" fill="#FFECB5"/>
</svg>
