<svg width="21" height="21" fill="none" xmlns="http://www.w3.org/2000/svg"><path d="M18.151.948a.875.875 0 00-.875.875v.73A10.338 10.338 0 0010.446 0C4.685 0 0 4.703 0 10.482a.875.875 0 001.75 0c0-4.815 3.9-8.732 8.695-8.732a8.61 8.61 0 015.637 2.082h-.802a.875.875 0 000 1.75h2.871a.875.875 0 00.875-.875V1.823a.875.875 0 00-.875-.875zm1.974 8.695a.875.875 0 00-.875.875c0 4.815-3.901 8.732-8.696 8.732a8.606 8.606 0 01-5.582-2.034h.84a.875.875 0 000-1.75H2.94l-.022.002a.836.836 0 00-.1.01c-.024.004-.048.006-.072.011a.783.783 0 00-.086.027c-.026.01-.053.017-.078.028-.024.011-.047.025-.07.038a.903.903 0 00-.08.05c-.007.005-.015.007-.021.013-.015.011-.027.025-.04.037a.816.816 0 00-.121.128.9.9 0 00-.15.302.815.815 0 00-.02.082.957.957 0 00-.01.093c0 .018-.005.036-.005.054v2.884a.875.875 0 001.75 0v-.696A10.342 10.342 0 0010.555 21C16.313 21 21 16.297 21 10.518a.875.875 0 00-.875-.875z" fill="#fff"/></svg>