<svg width="45" height="45" viewBox="0 0 45 45" fill="none" xmlns="http://www.w3.org/2000/svg">
<g clip-path="url(#clip0)">
<path d="M20.6951 33.6438L13.4415 31.1353L11.8411 31.2983L8.38237 41.2357C8.27216 41.5522 8.52862 41.8759 8.86199 41.841L13.7103 41.3333C13.8457 41.3191 13.9804 41.366 14.0778 41.4612L17.5631 44.8695C17.8027 45.1038 18.2047 45.0093 18.3148 44.6928L21.7962 34.6904L20.6951 33.6438Z" fill="#98DB7C"/>
<path d="M21.7958 34.6903L22.4993 32.6693L12.5422 29.2832L11.8408 31.2983C14.6683 33.3158 18.0918 34.5508 21.7958 34.6903Z" fill="#82D361"/>
<path d="M24.304 33.6438L31.5577 31.1353L33.1581 31.2983L36.6169 41.2357C36.727 41.5522 36.4707 41.8759 36.1373 41.841L31.289 41.3333C31.1535 41.3191 31.0189 41.366 30.9216 41.4612L27.4363 44.8695C27.1967 45.1038 26.7947 45.0093 26.6846 44.6928L23.2031 34.6904L24.304 33.6438Z" fill="#98DB7C"/>
<path d="M23.2035 34.6903L22.5 32.6693L32.4571 29.2832L33.1585 31.2983C30.3311 33.3158 26.9075 34.5508 23.2035 34.6903Z" fill="#82D361"/>
<path d="M22.5005 31.5912C6.18626 31.5912 6.17273 15.7841 6.18626 15.5114C6.61508 6.87252 13.7552 0 22.5005 0C31.24 0 38.3765 6.86338 38.8139 15.4941C38.8281 15.7725 38.8139 31.5912 22.5005 31.5912Z" fill="#E0E0E0"/>
<path d="M22.4997 31.0226C13.7544 31.0226 6.61451 24.1501 6.18561 15.5112C6.17207 15.784 6.16504 16.0584 6.16504 16.3345C6.16504 25.3559 13.4783 32.6692 22.4997 32.6692C31.521 32.6692 38.8343 25.3559 38.8343 16.3345C38.8343 16.0584 38.8273 15.784 38.8138 15.5112C38.3849 24.1501 31.245 31.0226 22.4997 31.0226Z" fill="#CECECE"/>
<path fill-rule="evenodd" clip-rule="evenodd" d="M35.3432 15.5571C35.3586 15.8145 35.3673 16.0737 35.3673 16.335C35.3673 23.4419 29.606 29.2032 22.4991 29.2032C15.3922 29.2032 9.63086 23.4419 9.63086 16.335C9.63086 16.0638 9.64024 15.7947 9.65685 15.5276C9.65704 15.5202 9.65726 15.5147 9.65748 15.5112C10.0821 8.78791 15.6695 3.46631 22.4998 3.46631C29.3301 3.46631 34.9175 8.78791 35.3421 15.5112C35.3426 15.5183 35.343 15.5338 35.3432 15.5571Z" fill="#898989"/>
</g>
<defs>
<clipPath id="clip0">
<rect width="45" height="45" fill="white"/>
</clipPath>
</defs>
</svg>
