<?xml version="1.0" encoding="utf-8"?>
<!-- Generator: Adobe Illustrator 24.0.2, SVG Export Plug-In . SVG Version: 6.00 Build 0)  -->
<svg version="1.1" id="Слой_1" xmlns="http://www.w3.org/2000/svg" xmlns:xlink="http://www.w3.org/1999/xlink" x="0px" y="0px"
	 viewBox="0 0 195 55" style="enable-background:new 0 0 195 55;" xml:space="preserve">
<style type="text/css">
	.st0{fill:#2C2C2C;}
	.st1{fill:#188E8E;}
</style>
<path class="st0" d="M9.2,51.2h6.1v-22h8.4v-5.6H0.8v5.6h8.4V51.2z"/>
<path class="st0" d="M34,51.6c2.9,0,4.9-1.1,6.4-2.7v2.3h5.8V39c0-2.8-0.7-5.2-2.3-6.7c-1.5-1.5-3.9-2.4-7.1-2.4
	c-3.6,0-5.9,0.7-8.2,1.7l1.5,4.6c1.9-0.7,3.5-1.1,5.8-1.1c3,0,4.5,1.4,4.5,3.9v0.4c-1.5-0.5-3-0.9-5.2-0.9c-5,0-8.5,2.1-8.5,6.7
	C26.8,49.3,30.1,51.6,34,51.6z M35.8,47.5c-1.9,0-3.3-0.9-3.3-2.6c0-2,1.6-3,4.1-3c1.5,0,2.8,0.3,3.8,0.8v1.1
	C40.5,45.9,38.6,47.5,35.8,47.5z"/>
<path class="st0" d="M54.3,30.1c0,15-1.2,16.3-3.4,16.3c-0.3,0-1-0.1-1.3-0.1l-0.4,4.8c0.8,0.2,2.2,0.4,3,0.4
	c5.3,0,7.7-2.2,7.7-16.2h5.4v16h6V30.1H54.3z"/>
<path class="st0" d="M83,51.6c2.9,0,4.9-1.1,6.4-2.7v2.3h5.8V39c0-2.8-0.7-5.2-2.3-6.7c-1.5-1.5-3.9-2.4-7.1-2.4
	c-3.6,0-5.9,0.7-8.2,1.7l1.5,4.6c1.9-0.7,3.5-1.1,5.8-1.1c3,0,4.5,1.4,4.5,3.9v0.4c-1.5-0.5-3-0.9-5.2-0.9c-5,0-8.5,2.1-8.5,6.7
	C75.7,49.3,79,51.6,83,51.6z M84.8,47.5c-1.9,0-3.3-0.9-3.3-2.6c0-2,1.6-3,4.1-3c1.5,0,2.8,0.3,3.8,0.8v1.1
	C89.5,45.9,87.6,47.5,84.8,47.5z"/>
<path class="st0" d="M120.1,30.1h-6v8.1h-7.4v-8.1h-6v21.1h6v-8.1h7.4v8.1h6V30.1z"/>
<path class="st0" d="M142.3,30.1h-18.6v5.1h6.3v16h6.1v-16h6.3v-5.1H142.3z"/>
<path class="st1" d="M160.8,10.2l0.3-0.1C160,8.8,160,8.3,160.2,8c0.7-0.9,2.6-1.7,5.3-1.7c1.6,0,3.2,0.3,4.7,0.8
	c2.5,0.9,4,1.5,5.1,2c0.7,0.3,1.5,0.6,2.3,0.8c0.5,0.1,0.9,0.2,1.4,0.2c0.2,0,0.5,0,0.7-0.1c-0.1-0.3-0.3-0.6-0.4-0.9
	c-0.2-0.4-0.4-0.9-0.7-1.3c-0.2,0-0.4,0-0.6-0.1c-0.7-0.2-1.3-0.4-1.9-0.7c-1.1-0.4-2.7-1.1-5.2-2c-1.7-0.6-3.6-1-5.4-1
	c-3.1,0-5.8,1-7,2.6c-1.1,1.5-0.3,3.2,0.7,4.5C159.7,10.7,160.2,10.4,160.8,10.2"/>
<path class="st1" d="M182.8,7.4l0.1,0.3c0.6-0.5,1.3-1,1.8-1c0.1,0,0.2,0,0.3,0.1c1.4,1.1,2.6,5.3,0.9,10.1c-0.9,2.5-1.5,4-2,5.1
	c-0.3,0.7-0.6,1.5-0.8,2.3c-0.2,0.7-0.2,1.4-0.1,2.1l0.9-0.4c0.4-0.2,0.9-0.4,1.3-0.7c0-0.2,0-0.3,0.1-0.6c0.2-0.7,0.4-1.3,0.7-1.9
	c0.4-1.1,1.1-2.7,2-5.2c1.9-5.5,0.7-10.8-1.6-12.6c-0.4-0.4-1-0.5-1.6-0.5c-1,0-2,0.6-2.8,1.2C182.3,6.3,182.6,6.8,182.8,7.4"/>
<path class="st1" d="M185.6,29.6l-0.3,0.1c1.1,1.3,1.1,1.8,0.9,2.1c-0.7,0.9-2.6,1.7-5.3,1.7c-1.6,0-3.2-0.3-4.7-0.8
	c-2.5-0.9-4.1-1.5-5.1-2c-0.7-0.3-1.5-0.6-2.3-0.8c-0.4-0.1-0.9-0.1-1.3-0.1c-0.3,0-0.5,0-0.8,0.1l0.4,0.8c0.2,0.4,0.4,0.9,0.7,1.3
	c0.2,0,0.4,0,0.5,0.1c0.7,0.2,1.3,0.4,1.9,0.7c1.1,0.4,2.7,1.1,5.2,2c1.7,0.6,3.6,0.9,5.4,0.9c2.7,0,5.8-1,7-2.6
	c1.1-1.5,0.3-3.2-0.7-4.5C186.7,29,186.1,29.3,185.6,29.6"/>
<path class="st1" d="M163.6,32.3l-0.2-0.3c-0.6,0.6-1.3,1.1-1.7,1.1c-0.1,0-0.3-0.1-0.3-0.1c-1.4-1.1-2.6-5.3-0.9-10.1
	c0.9-2.5,1.5-4.1,2-5.1c0.3-0.7,0.6-1.5,0.8-2.3c0.2-0.7,0.2-1.4,0.1-2.1l-0.9,0.4c-0.4,0.2-0.9,0.4-1.3,0.7c0,0.2,0,0.3-0.1,0.6
	c-0.2,0.7-0.4,1.3-0.7,1.9c-0.4,1.1-1.1,2.7-2,5.2c-1.9,5.5-0.7,10.8,1.6,12.6c0.5,0.4,1,0.6,1.6,0.6c1,0,1.9-0.6,2.7-1.3
	C164.1,33.4,163.8,32.9,163.6,32.3"/>
<path class="st1" d="M157.6,21.8c0-0.1,0.1-0.2,0.1-0.3c-1.6-0.1-2-0.3-2.1-0.8c-0.2-1.8,1.9-5.6,6.5-7.8c2.4-1.1,3.9-1.8,5-2.2
	c0.8-0.3,1.5-0.6,2.2-1c0.6-0.4,1.1-0.9,1.5-1.4L169.9,8c-0.4-0.2-0.9-0.3-1.4-0.4c-0.1,0.1-0.3,0.2-0.5,0.3
	c-0.6,0.3-1.2,0.6-1.8,0.9c-1.1,0.4-2.6,1.1-5.1,2.3c-5.2,2.5-8.1,7.2-7.7,10.1c0.3,2,2,2.4,3.6,2.6C157.3,23,157.4,22.4,157.6,21.8
	"/>
<path class="st1" d="M171.3,4.2l0.3,0.1c0.1-1.6,0.5-2.1,0.8-2.1c0.1,0,0.2,0,0.3,0c2.1,0,5.6,2.5,7.5,6.5c1.1,2.4,1.8,4,2.2,5
	c0.3,0.8,0.6,1.5,1,2.2c0.4,0.6,0.8,1.1,1.4,1.5c0.1-0.3,0.2-0.6,0.3-0.9c0.2-0.5,0.3-0.9,0.4-1.4c-0.1-0.1-0.2-0.3-0.3-0.4
	c-0.3-0.6-0.6-1.2-0.9-1.9c-0.4-1.1-1.1-2.7-2.3-5.1c-2.4-5.1-6.6-7.8-9.4-7.8c-0.2,0-0.4,0-0.5,0c-1.8,0.2-2.4,2-2.6,3.6
	C170.1,3.8,170.7,4,171.3,4.2z"/>
<path class="st1" d="M192.9,18.7c-0.2-1.9-2-2.5-3.6-2.6c-0.1,0.6-0.3,1.2-0.5,1.8l-0.1,0.3c1.6,0.1,2,0.5,2.1,0.8
	c0.2,1.8-1.9,5.6-6.5,7.8c-2.4,1.1-3.9,1.8-5,2.2c-0.8,0.3-1.5,0.6-2.2,1c-0.6,0.4-1.1,0.9-1.6,1.4l0.9,0.3c0.4,0.2,0.9,0.3,1.4,0.4
	c0.2-0.1,0.3-0.2,0.5-0.3c0.6-0.3,1.2-0.6,1.8-0.9c1.1-0.4,2.7-1.1,5.1-2.3C190.4,26.3,193.2,21.6,192.9,18.7z"/>
<path class="st1" d="M175.1,35.5l-0.3-0.1c-0.1,1.6-0.5,2.1-0.8,2.1c-0.1,0-0.2,0-0.3,0c-2.1,0-5.6-2.5-7.5-6.5
	c-1.1-2.4-1.8-4-2.2-5c-0.3-0.8-0.6-1.5-1-2.2c-0.4-0.6-0.8-1.1-1.4-1.5c-0.1,0.3-0.2,0.6-0.3,0.9c-0.2,0.5-0.3,0.9-0.4,1.4
	c0.1,0.1,0.2,0.3,0.3,0.4c0.3,0.6,0.6,1.2,0.9,1.9c0.4,1.1,1.1,2.7,2.2,5.1c2.4,5,6.6,7.8,9.4,7.8c0.2,0,0.4,0,0.5,0
	c1.8-0.2,2.4-2,2.6-3.6C176.3,35.9,175.7,35.7,175.1,35.5z"/>
</svg>
