<svg width="40" height="40" fill="none" xmlns="http://www.w3.org/2000/svg"><g clip-path="url(#clip0)" fill="#4CC2F1"><path d="M18.26 4.181l-.31-.106a17.965 17.965 0 00-1.818-.52c.198-1.547.796-3.283 2.651-3.52.183-.023.368-.035.553-.035 2.812 0 7.096 2.655 9.509 7.593a100.732 100.732 0 012.24 4.887l.04.091c.236.623.524 1.226.862 1.803.099.152.208.299.325.438-.11.463-.248.92-.412 1.369-.107.3-.214.584-.317.856a5.71 5.71 0 01-1.406-1.503 12.944 12.944 0 01-1.052-2.15l-.009-.02A99.271 99.271 0 0026.89 8.5c-1.926-3.937-5.41-6.37-7.538-6.37a1.961 1.961 0 00-.268 0c-.33.039-.697.472-.824 2.05z"/><path d="M7.72 9.762l-.298.138-.05-.004c-.566.264-1.116.557-1.649.88-1.002-1.263-1.839-2.896-.696-4.34 1.224-1.55 3.946-2.508 7.104-2.508a16.94 16.94 0 015.493.935c2.552.899 4.169 1.542 5.236 1.972.622.275 1.264.503 1.922.682.187.037.375.065.565.083.254.403.487.818.697 1.243.152.296.288.568.412.832-.235.04-.474.062-.713.063a7.044 7.044 0 01-1.39-.154 13.904 13.904 0 01-2.309-.789l-.03-.011a104.922 104.922 0 00-5.108-1.906 14.734 14.734 0 00-4.738-.816c-2.8 0-4.721.844-5.38 1.68-.195.249-.145.797.931 2.02zm22.048-2.288l-.128-.272v.004c-.274-.558-.58-1.1-.915-1.626.828-.635 1.814-1.183 2.828-1.183a2.632 2.632 0 011.596.525c2.313 1.74 3.584 6.887 1.617 12.252a100.977 100.977 0 01-2.009 5.08 12.1 12.1 0 00-.705 1.87l-.011.057-.011.049a2.167 2.167 0 00-.064.434c-.414.245-.84.47-1.279.671l-.861.395a5.45 5.45 0 01.099-2.04 13.3 13.3 0 01.824-2.244l.164-.393.001-.003a102.43 102.43 0 001.81-4.59c1.7-4.655.549-8.785-.899-9.862a.425.425 0 00-.272-.087c-.499 0-1.187.47-1.785.963zm2.622 21.32l-.296.135c1.076 1.226 1.125 1.775.931 2.02-.66.835-2.58 1.684-5.36 1.684a14.77 14.77 0 01-4.763-.817 97.872 97.872 0 01-5.17-1.917 13.526 13.526 0 00-2.314-.789 6.751 6.751 0 00-1.34-.146c-.255 0-.508.023-.759.067l.413.82c.21.424.444.836.7 1.235.187.016.371.044.553.083a12.4 12.4 0 011.922.683l.055.022a124.55 124.55 0 005.181 1.95c1.76.604 3.615.915 5.485.919 2.742 0 5.884-.962 7.109-2.509 1.142-1.448.305-3.08-.697-4.339-.533.322-1.084.617-1.65.884v.015zM10.008 31.17l.153.319-.016.012c.274.525.574 1.052.899 1.577-.858.706-1.72 1.263-2.738 1.263a2.724 2.724 0 01-1.65-.58c-2.309-1.708-3.583-6.876-1.625-12.229a95.045 95.045 0 012.013-5.084 11.54 11.54 0 00.7-1.866c.046-.197.07-.375.091-.536.412-.248.838-.474 1.275-.679l.861-.394A5.444 5.444 0 019.877 15a12.947 12.947 0 01-.825 2.24l-.053.126a103.391 103.391 0 00-1.918 4.865c-1.699 4.654-.549 8.784.895 9.861a.548.548 0 00.346.142c.404 0 1.056-.517 1.687-1.065z"/><path d="M4.273 21.035l.04-.11c-1.649-.099-2.061-.26-2.123-.742-.24-1.767 1.934-5.479 6.536-7.605 2.4-1.108 3.983-1.747 5.03-2.17a13.882 13.882 0 002.21-1.02 5.718 5.718 0 001.563-1.385l-.907-.32a13.8 13.8 0 00-1.373-.394 5.958 5.958 0 01-.474.33c-.594.33-1.214.61-1.856.841-1.068.43-2.676 1.085-5.125 2.213-5.282 2.446-8.14 6.974-7.76 9.795.268 1.972 2.028 2.366 3.632 2.52.145-.588.318-1.183.524-1.743v.011c.03-.076.057-.148.083-.221zm35.495-2.788c-.244-1.807-2.013-2.39-3.62-2.58a16.426 16.426 0 01-.537 1.783l-.107.284c1.65.126 2.062.481 2.111.789.235 1.755-1.954 5.467-6.54 7.582a103.71 103.71 0 01-4.916 2.128l-.11.045c-.77.275-1.51.617-2.215 1.022a5.63 5.63 0 00-1.566 1.384l.907.32c.45.153.909.285 1.373.394.151-.12.31-.232.474-.335a12.87 12.87 0 011.856-.836l.092-.038c1.068-.434 2.658-1.08 5.029-2.175 5.29-2.418 8.148-6.97 7.769-9.767zM21.545 34.514l.31.107c.59.203 1.19.377 1.798.52-.178 1.543-.796 3.279-2.652 3.515a4.182 4.182 0 01-.552.04c-2.792-.004-7.076-2.659-9.484-7.578a83.975 83.975 0 01-2.26-4.978 12.4 12.4 0 00-.862-1.803 5.48 5.48 0 00-.322-.43c.111-.465.25-.925.413-1.376.065-.18.13-.354.193-.523l.12-.322a5.53 5.53 0 011.398 1.492 12.9 12.9 0 011.047 2.15l.107.244c.44 1.012 1.082 2.49 2.12 4.623 1.922 3.933 5.406 6.37 7.534 6.37.089.005.178.005.268 0 .33-.039.693-.473.824-2.05z"/></g><defs><clipPath id="clip0"><path fill="#fff" d="M0 0h40v40H0z"/></clipPath></defs></svg>