<svg width="45" height="45" viewBox="0 0 45 45" fill="none" xmlns="http://www.w3.org/2000/svg">
<g clip-path="url(#clip0)">
<path d="M13.6242 31.2114L11.8402 31.2984L8.3814 41.2359C8.27118 41.5524 8.52765 41.8761 8.86102 41.8411L13.7093 41.3334C13.8448 41.3193 13.9794 41.3661 14.0768 41.4613L17.5621 44.8696C17.8017 45.1039 18.2037 45.0095 18.3138 44.693L21.7953 34.6906L20.7687 33.6942L13.6242 31.2114Z" fill="#FF4755"/>
<path d="M21.7958 34.6898L22.4993 32.6688L12.5422 29.2827L11.8408 31.2978C14.6683 33.3153 18.0918 34.5503 21.7958 34.6898Z" fill="#FC2B3A"/>
<path d="M31.374 31.2114L33.158 31.2984L36.6169 41.2359C36.7271 41.5524 36.4706 41.8761 36.1373 41.8411L31.289 41.3334C31.1535 41.3193 31.0189 41.3661 30.9216 41.4613L27.4363 44.8696C27.1967 45.1039 26.7947 45.0095 26.6846 44.693L23.2031 34.6906L24.2297 33.6942L31.374 31.2114Z" fill="#FF4755"/>
<path d="M23.2025 34.6898L22.499 32.6688L32.4562 29.2827L33.1575 31.2978C30.3301 33.3153 26.9066 34.5503 23.2025 34.6898Z" fill="#FC2B3A"/>
<path d="M22.5006 31.6508C6.16592 31.6508 6.17277 15.784 6.18631 15.5113C6.61513 6.87252 13.7553 0 22.5006 0C31.2459 0 38.386 6.87252 38.8148 15.5114C38.8284 15.7841 38.8352 31.6508 22.5006 31.6508Z" fill="#FFE27A"/>
<path d="M22.4997 31.0226C13.7544 31.0226 6.61451 24.1501 6.18561 15.5112C6.17207 15.784 6.16504 16.0584 6.16504 16.3345C6.16504 25.3559 13.4783 32.6692 22.4997 32.6692C31.521 32.6692 38.8343 25.3559 38.8343 16.3345C38.8343 16.0584 38.8273 15.784 38.8138 15.5112C38.3849 24.1501 31.245 31.0226 22.4997 31.0226Z" fill="#F9CF58"/>
<path fill-rule="evenodd" clip-rule="evenodd" d="M35.3371 15.5752C35.3386 15.5539 35.34 15.5326 35.3413 15.5112C35.3586 15.7835 35.3683 16.0578 35.3683 16.3345C35.3683 23.4414 29.607 29.2027 22.5001 29.2027C15.3932 29.2027 9.63184 23.4414 9.63184 16.3345C9.63184 16.0579 9.64159 15.7835 9.65882 15.5112C9.65963 15.524 9.66045 15.5368 9.6613 15.5496C9.65474 15.3681 9.65594 15.2586 9.65738 15.2358C10.082 8.51252 15.6694 3.19092 22.4997 3.19092C29.33 3.19092 34.9174 8.51252 35.342 15.2358C35.3435 15.2597 35.3448 15.3784 35.3371 15.5752Z" fill="#FFAC3E"/>
</g>
<defs>
<clipPath id="clip0">
<rect width="45" height="45" fill="white"/>
</clipPath>
</defs>
</svg>
