<svg width="54" height="54" fill="none" xmlns="http://www.w3.org/2000/svg"><path d="M27 24.384a6.919 6.919 0 100-13.837 6.919 6.919 0 000 13.837z" fill="#4CC2F1"/><path d="M27 0C12.108 0 0 12.108 0 27s12.108 27 27 27 27-12.108 27-27S41.892 0 27 0zm0 9.07a8.345 8.345 0 018.353 8.353c0 4.599-3.712 8.396-8.353 8.396a8.345 8.345 0 01-8.353-8.353c0-4.599 3.712-8.396 8.353-8.396zm15.23 33.117h-1.35v-9.196a4.141 4.141 0 00-4.135-4.135h-19.49a4.141 4.141 0 00-4.135 4.135v9.197h-1.35V32.61c0-2.784 2.278-5.063 5.063-5.063h20.376c2.785 0 5.063 2.279 5.063 5.063v9.577h-.042z" fill="#4CC2F1"/></svg>