<svg version="1.1" id="Слой_1" xmlns="http://www.w3.org/2000/svg" x="0" y="0" viewBox="0 0 128 128" xml:space="preserve"><style>.st0{fill:#4f9b97}</style><path class="st0" d="M53.7 12.6c1.6.3 3.2.9 4.8 1.3 1.4-7.6 3-8.3 10.1-4.8 1.1.5 2.2 1.1 3.2 1.8 6.6 4.6 11.4 10.5 14.7 17.7 3 6.5 5.8 13 8.7 19.6 1.4 3.1 3.2 5.9 6.4 8.2.5-2.9 2.9-5.4 1.6-7.8-3.6-6.8-6.1-14.1-9.5-21C87.4 14.2 78.6 3.4 62.9 0h-2.7c-4.6 1.7-7.1 5-8 9.6-.2 1.3-.6 2.6 1.5 3zM11.5 69.1c-4.7-.8-5.4-1.9-4-6.4.8-2.5 2-4.8 3.6-7 4.2-5.8 9.5-10.2 16-13.3 6.8-3.2 13.8-6.2 20.7-9.3 3.3-1.5 6.3-3.2 8.4-6.5-2.8-.5-5.2-3-7.7-1.7-6.3 3.3-13 5.8-19.5 8.7C15.4 39.7 4.7 48.4 0 62.8v5.9c.4.8.8 1.7 1.3 2.5 1.5 2.6 6.7 5.3 9.5 4.7 2.4-.5 1.4-3.1 2.3-4.5 1.1-1.8.1-2-1.6-2.3z"/><path class="st0" d="M32.1 103.4c-5.9 4.3-7.8 3.7-10.3-3.2-2.1-6-2.1-12.1-1.2-18.2 1.3-8.4 5-16.1 8.1-23.9 1.4-3.7 3.1-7.3 3.4-11.3.1-1 .3-2.2-.3-2.8-.9-.9-1.8.3-2.7.6-2.7.9-4.5 2.5-4.9 5.5-.2 1.6-1.1 3.1-1.7 4.6C18.4 65.2 13.4 75.5 13 87c-.3 7.2.8 14.2 4.7 20.6 1.6 2.6 3.6 4.8 6.7 5.7 4.1 1.2 7.5-.5 10.1-3.1 2-2-1.4-3.6-1.8-5.6 0-.5-.3-.8-.6-1.2z"/><path class="st0" d="M69.4 114.5c-1.5 7.4-3.2 8.2-10.3 4.6-.8-.4-1.6-.8-2.3-1.3-5.4-3.5-9.7-8.2-12.9-13.7-4.3-7.3-7.3-15.2-10.6-23-1.5-3.5-3.3-6.7-6.7-9.1-.9 2.7-3.1 5.2-1.8 7.8 3.9 7.5 6.6 15.5 10.5 23.1 4.9 9.8 11.6 18 21.9 22.9 3.7 1.7 7.5 2.9 11.7 1.8 3.8-1 7.4-5.6 7-9.8-.6-3.5-4.4-2.3-6.5-3.3zm26.3-89.8c.6-.4 1-.7 1.5-1 4.3-2.9 5.5-2.6 7.9 2.1 2.6 5.1 2.9 10.5 2.7 16-.3 7.7-3.3 14.7-6 21.8-1.9 5.1-4.6 10-5.7 15.4-.4 1.8-1.6 4.6.3 5.5 1.6.7 3.7-1.5 5.6-2.4 1.1-.5.7-1.5 1-2.3.7-1.9 1.4-3.9 2.2-5.9 3.9-10 8.7-19.8 9.5-30.6.7-8.4-.4-16.5-5.2-23.6-3.3-4.8-7.7-6-12.9-3.7-4.3 1.9-4.4 2.3-2.2 6.4.4.7.8 1.5 1.3 2.3z"/><path class="st0" d="M121.2 53.1c-4.5-1.7-4.8-1.5-6.1 3-.2.7-.4 1.5-.7 2.4 7.6 1.8 8.2 3.2 4.8 10.1-.3.6-.5 1.2-.9 1.8-4.2 6.8-10.1 12-17.4 15.5-6.7 3.2-13.6 6.1-20.4 9.1-3.3 1.5-6.4 3.3-8.7 6.7 2.9.3 5.3 2.9 7.9 1.5 8.2-4.3 17.1-7.1 25.2-11.6 10.7-5.9 19.3-13.6 22.7-25.6 1.6-6.2-.6-10.7-6.4-12.9zm-99-19.2c1.9-.9 2.6-1.4 1-3.4-2.7-3.5-2.3-4.8 1.7-7 6.3-3.4 13.1-3.6 20-2.7 9.9 1.4 18.7 5.8 27.9 9.4 3.8 1.5 7.6 2.7 12.3 2.1-1.7-2.6-1.5-6-4.8-6.9-2.5-.7-4.8-1.7-7.2-2.6-10.3-3.9-20.3-8.8-31.7-9.2-7.7-.3-15 .8-21.6 5.1-5.2 3.4-6.5 8.1-3.8 13.4 2 3.9 2 3.8 6.2 1.8z"/><path class="st0" d="M105.6 94.5c-1.6.8-2.5 1.3-1 3.2 2.7 3.5 2.3 5.2-1.7 7.2-6.8 3.5-14.1 3.5-21.3 2.3-9.4-1.6-17.8-5.7-26.5-9.2-3.2-1.2-6.3-2.2-9.7-2.3-.7 0-1.6-.4-2 .7-.3 1 2.9 6.2 4 6.5 4.3.8 8.2 3 12.2 4.5 9.4 3.5 18.7 7.6 26.9 7.4 9.1.1 17-2.1 21.7-5.2 5.3-3.5 6.6-7.9 3.9-13.3-2.2-4.1-2.1-4-6.5-1.8z"/></svg>