<svg width="16" height="16" viewBox="0 0 16 16" fill="none" xmlns="http://www.w3.org/2000/svg">
<g clip-path="url(#clip0)">
<path d="M6.71238 1.575C6.91238 1.6125 7.11238 1.6875 7.31238 1.7375C7.48738 0.7875 7.68738 0.7 8.57488 1.1375C8.71238 1.2 8.84988 1.275 8.97488 1.3625C9.79988 1.9375 10.3999 2.675 10.8124 3.575C11.1874 4.3875 11.5374 5.2 11.8999 6.025C12.0749 6.4125 12.2999 6.7625 12.6999 7.05C12.7624 6.6875 13.0624 6.375 12.8999 6.075C12.4499 5.225 12.1374 4.3125 11.7124 3.45C10.9249 1.775 9.82488 0.425 7.86238 0C7.74988 0 7.63738 0 7.52488 0C6.94988 0.2125 6.63738 0.625 6.52488 1.2C6.49988 1.3625 6.44988 1.525 6.71238 1.575Z" fill="#4F9B97"/>
<path d="M1.4375 8.63771C0.85 8.53771 0.7625 8.40021 0.9375 7.83771C1.0375 7.52521 1.1875 7.23771 1.3875 6.96271C1.9125 6.23771 2.575 5.68771 3.3875 5.30021C4.2375 4.90021 5.1125 4.52521 5.975 4.13771C6.3875 3.95021 6.7625 3.73771 7.025 3.32521C6.675 3.26271 6.375 2.95021 6.0625 3.11271C5.275 3.52521 4.4375 3.83771 3.625 4.20021C1.925 4.96271 0.5875 6.05021 0 7.85021C0 8.10021 0 8.35021 0 8.58771C0.05 8.68771 0.1 8.80021 0.1625 8.90021C0.35 9.22521 1 9.56271 1.35 9.48771C1.65 9.42521 1.525 9.10021 1.6375 8.92521C1.775 8.70021 1.65 8.67521 1.4375 8.63771Z" fill="#4F9B97"/>
<path d="M4.01247 12.9251C3.27497 13.4626 3.03747 13.3876 2.72497 12.5251C2.46247 11.7751 2.46247 11.0126 2.57497 10.2501C2.73747 9.2001 3.19997 8.2376 3.58747 7.2626C3.76247 6.8001 3.97497 6.3501 4.01247 5.8501C4.02497 5.7251 4.04997 5.5751 3.97497 5.5001C3.86247 5.3876 3.74997 5.5376 3.63747 5.5751C3.29997 5.6876 3.07497 5.8876 3.02497 6.2626C2.99997 6.4626 2.88747 6.6501 2.81247 6.8376C2.29997 8.1501 1.67497 9.4376 1.62497 10.8751C1.58747 11.7751 1.72497 12.6501 2.21247 13.4501C2.41247 13.7751 2.66247 14.0501 3.04997 14.1626C3.56247 14.3126 3.98747 14.1001 4.31247 13.7751C4.56247 13.5251 4.13747 13.3251 4.08747 13.0751C4.08747 13.0126 4.04997 12.9751 4.01247 12.9251Z" fill="#4F9B97"/>
<path d="M8.6759 14.3125C8.4884 15.2375 8.2759 15.3375 7.3884 14.8875C7.2884 14.8375 7.1884 14.7875 7.1009 14.725C6.4259 14.2875 5.8884 13.7 5.4884 13.0125C4.9509 12.1 4.5759 11.1125 4.1634 10.1375C3.9759 9.7 3.7509 9.3 3.3259 9C3.2134 9.3375 2.9384 9.65 3.1009 9.975C3.5884 10.9125 3.9259 11.9125 4.4134 12.8625C5.0259 14.0875 5.8634 15.1125 7.1509 15.725C7.6134 15.9375 8.0884 16.0875 8.6134 15.95C9.0884 15.825 9.5384 15.25 9.4884 14.725C9.4134 14.2875 8.9384 14.4375 8.6759 14.3125Z" fill="#4F9B97"/>
<path d="M11.9624 3.08764C12.0374 3.03764 12.0874 3.00014 12.1499 2.96264C12.6874 2.60014 12.8374 2.63764 13.1374 3.22514C13.4624 3.86264 13.4999 4.53764 13.4749 5.22514C13.4374 6.18764 13.0624 7.06264 12.7249 7.95014C12.4874 8.58764 12.1499 9.20014 12.0124 9.87514C11.9624 10.1001 11.8124 10.4501 12.0499 10.5626C12.2499 10.6501 12.5124 10.3751 12.7499 10.2626C12.8874 10.2001 12.8374 10.0751 12.8749 9.97514C12.9624 9.73764 13.0499 9.48764 13.1499 9.23764C13.6374 7.98764 14.2374 6.76264 14.3374 5.41264C14.4249 4.36264 14.2874 3.35014 13.6874 2.46264C13.2749 1.86264 12.7249 1.71264 12.0749 2.00014C11.5374 2.23764 11.5249 2.28764 11.7999 2.80014C11.8499 2.88764 11.8999 2.98764 11.9624 3.08764Z" fill="#4F9B97"/>
<path d="M15.1496 6.63734C14.5871 6.42484 14.5496 6.44984 14.3871 7.01234C14.3621 7.09984 14.3371 7.19984 14.2996 7.31234C15.2496 7.53734 15.3246 7.71234 14.8996 8.57484C14.8621 8.64984 14.8371 8.72484 14.7871 8.79984C14.2621 9.64984 13.5246 10.2998 12.6121 10.7373C11.7746 11.1373 10.9121 11.4998 10.0621 11.8748C9.64961 12.0623 9.26211 12.2873 8.97461 12.7123C9.33711 12.7498 9.63711 13.0748 9.96211 12.8998C10.9871 12.3623 12.0996 12.0123 13.1121 11.4498C14.4496 10.7123 15.5246 9.74984 15.9496 8.24984C16.1496 7.47484 15.8746 6.91234 15.1496 6.63734Z" fill="#4F9B97"/>
<path d="M2.77447 4.23761C3.01197 4.12511 3.09947 4.06261 2.89947 3.81261C2.56197 3.37511 2.61197 3.21261 3.11197 2.93761C3.89947 2.51261 4.74947 2.48761 5.61197 2.60011C6.84947 2.77511 7.94947 3.32511 9.09947 3.77511C9.57447 3.96261 10.0495 4.11261 10.637 4.03761C10.4245 3.71261 10.4495 3.28761 10.037 3.17511C9.72447 3.08761 9.43697 2.96261 9.13697 2.85011C7.84947 2.36261 6.59947 1.75011 5.17447 1.70011C4.21197 1.66261 3.29947 1.80011 2.47447 2.33761C1.82447 2.76261 1.66197 3.35011 1.99947 4.01261C2.24947 4.50011 2.24947 4.48761 2.77447 4.23761Z" fill="#4F9B97"/>
<path d="M13.1993 11.8123C12.9993 11.9123 12.8868 11.9748 13.0743 12.2123C13.4118 12.6498 13.3618 12.8623 12.8618 13.1123C12.0118 13.5498 11.0993 13.5498 10.1993 13.3998C9.02434 13.1998 7.97434 12.6873 6.88684 12.2498C6.48684 12.0998 6.09934 11.9748 5.67434 11.9623C5.58684 11.9623 5.47434 11.9123 5.42434 12.0498C5.38684 12.1748 5.78684 12.8248 5.92434 12.8623C6.46184 12.9623 6.94934 13.2373 7.44934 13.4248C8.62434 13.8623 9.78684 14.3748 10.8118 14.3498C11.9493 14.3623 12.9368 14.0873 13.5243 13.6998C14.1868 13.2623 14.3493 12.7123 14.0118 12.0373C13.7368 11.5248 13.7493 11.5373 13.1993 11.8123Z" fill="#4F9B97"/>
</g>
<defs>
<clipPath id="clip0">
<rect width="16" height="16" fill="white"/>
</clipPath>
</defs>
</svg>
